<svg width="348" height="356" viewBox="0 0 348 356" fill="none" xmlns="http://www.w3.org/2000/svg">
<g clip-path="url(#clip0_54_222)">
<path opacity="0.3922" d="M347.6 82.5L204.8 0V106.1L347.6 188.6V82.5Z" fill="#C4C3EC"/>
<path d="M347.6 82.5L204.8 0V16.7L347.6 99.2V82.5Z" fill="#B7B6E3"/>
<g opacity="0.9">
<path d="M313 101L335.6 114V107.5L313 94.5V101Z" fill="#B7B6E3"/>
<path d="M221.5 41.6L229.4 46.2V52.7L221.5 48.1V41.6Z" fill="#B7B6E3"/>
<path d="M260.7 70.7L277 80.1V73.7L260.7 64.3V70.7Z" fill="#B7B6E3"/>
<path d="M230.5 53.3L251.5 65.5V59L230.5 46.8V53.3Z" fill="#B7B6E3"/>
<path d="M252.7 66.1L259.2 69.9V63.4L252.7 59.7V66.1Z" fill="#2559B4"/>
<path d="M278.3 80.9L311.8 100.3V93.8L278.3 74.4V80.9Z" fill="#F3D249"/>
<path d="M211.2 105.9L242.6 124V117.6L211.2 99.4V105.9Z" fill="#B7B6E3"/>
<path d="M273.9 142.1L290.2 151.5V145L273.9 135.6V142.1Z" fill="#B7B6E3"/>
<path d="M243.7 124.7L264.8 136.8V130.4L243.7 118.2V124.7Z" fill="#B7B6E3"/>
<path d="M266 137.5L272.5 141.3V134.8L266 131V137.5Z" fill="#2559B4"/>
<path d="M291.601 152.3L325.101 171.7V165.2L291.601 145.8V152.3Z" fill="#05D4F5"/>
<path d="M315.8 93.5L344 109.7V103.3L315.8 87V93.5Z" fill="#05D4F5"/>
<path d="M282.7 74.3L313.5 92.1V85.7L282.7 67.9V74.3Z" fill="#B7B6E3"/>
<path d="M214.5 35L245.3 52.8V46.3L214.5 28.5V35Z" fill="#B7B6E3"/>
<path d="M258.9 60.6L281.1 73.4V67L258.9 54.1V60.6Z" fill="#2559B4"/>
<path d="M246.7 53.6L257.7 59.9V53.4L246.7 47.1V53.6Z" fill="#05D4F5"/>
<path d="M315.8 147.9L344 164.1V157.7L315.8 141.4V147.9Z" fill="#05D4F5"/>
<path d="M210.2 80.9L236.9 96.3V102.8L210.2 87.3V80.9Z" fill="#B7B6E3"/>
<path d="M261.9 116.7L281.8 128.2V121.7L261.9 110.3V116.7Z" fill="#B7B6E3"/>
<path d="M252.7 111.4L259.2 115.2V108.7L252.7 105V111.4Z" fill="#2559B4"/>
<path d="M283.4 129.1L314.2 147V140.5L283.4 122.7V129.1Z" fill="#F3D249"/>
<path d="M239.601 104.3L250.601 110.6V104.2L239.601 97.8V104.3Z" fill="#05D4F5"/>
<path d="M315.8 120.7L344 137V130.5L315.8 114.3V120.7Z" fill="#05D4F5"/>
<path d="M279 99.5L314.2 119.8V113.4L279 93V99.5Z" fill="#B7B6E3"/>
<path d="M214.5 62.3L245.3 80.1V73.6L214.5 55.8V62.3Z" fill="#B7B6E3"/>
<path d="M258.9 87.9L277.4 98.6V92.1L258.9 81.5V87.9Z" fill="#05D4F5"/>
<path d="M246.7 80.9L257.7 87.2V80.8L246.7 74.4V80.9Z" fill="#B7B6E3"/>
<path d="M304.7 105.3L335.6 123.1V116.6L304.7 98.8V105.3Z" fill="#2559B4"/>
<path d="M250.301 73.8L281.101 91.6V85.2L250.301 67.4V73.8Z" fill="#F3D249"/>
<path d="M282.801 92.6L302.701 104.1V97.6L282.801 86.1V92.6Z" fill="#B7B6E3"/>
<path d="M231.101 62.8L242.101 69.1V62.6L231.101 56.3V62.8Z" fill="#2559B4"/>
<path d="M304.7 150.8L335.6 168.6V162.1L304.7 144.3V150.8Z" fill="#B7B6E3"/>
<path d="M246.7 117.3L276.2 134.3V127.8L246.7 110.8V117.3Z" fill="#B7B6E3"/>
<path d="M277.4 135L303.7 150.2V143.7L277.4 128.5V135Z" fill="#2559B4"/>
<path d="M231.101 108.3L245.901 116.8V110.3L231.101 101.8V108.3Z" fill="#F5D622"/>
<path d="M322.501 133.7L335.601 141.3V134.8L322.501 127.3V133.7Z" fill="#F3D249"/>
<path d="M260.501 97.9L291.801 116V109.6L260.501 91.5V97.9Z" fill="#B7B6E3"/>
<path d="M293.001 116.7L321.101 132.9V126.4L293.001 110.3V116.7Z" fill="#B7B6E3"/>
<path d="M247.101 90.2L258.101 96.6V90.1L247.101 83.8V90.2Z" fill="#05D4F5"/>
<path d="M306 133.3L325.7 144.7V138.2L306 126.8V133.3Z" fill="#F3D249"/>
<path d="M250.899 101.5L304.499 132.5V126L250.899 95V101.5Z" fill="#B7B6E3"/>
<path d="M232.8 91.1L249.6 100.7V94.3L232.8 84.6V91.1Z" fill="#F3D249"/>
</g>
<g opacity="0.3922">
<path d="M33.3998 57.9L33.2998 85.7L67.8998 105.7L67.9998 78L33.3998 57.9Z" fill="#C4C3EC"/>
</g>
<path d="M35.3994 70.7L44.0994 72.2V76.8L39.7994 75.5L44.0994 79.4V84L35.3994 75.3V70.7Z" fill="#05D4F5"/>
<path d="M51.599 71L56.199 73.7L49.599 92.6L44.999 89.9L51.599 71Z" fill="#05D4F5"/>
<path d="M57.1992 86.9L61.4992 88L57.1992 84.4V79.8L65.8992 88.3V92.9L57.1992 91.5V86.9Z" fill="#05D4F5"/>
<g opacity="0.3922">
<path d="M49.0004 30.6L48.9004 59.1L74.1004 73.7L74.2004 45.3L49.0004 30.6Z" fill="#C4C3EC"/>
</g>
<path d="M60.2 46.2L62.8 47.7L63.5 43.7L66.4 45.4L65.7 49.4L67.3 50.3V53.3L65.2 52.1L64.7 55L67.4 56.5V59.5L64.3 57.7L63.6 61.7L60.6 60L61.3 56L58.7 54.5L58 58.5L55 56.8L55.7 52.8L54.1 51.9V48.9L56.2 50.1L56.7 47.2L54 45.7V42.7L57.1 44.5L57.8 40.5L60.7 42.2L60.2 46.2ZM59.2 51.8L61.8 53.3L62.3 50.4L59.7 48.9L59.2 51.8Z" fill="#05D4F5"/>
<path d="M123.4 208.5L78.7002 234.3L15.7002 197.9L60.4002 172.1L123.4 208.5Z" fill="#D8D5EE"/>
<path d="M114.7 224.8L81.3996 255.9L5.59961 228.8L38.8996 197.8L114.7 224.8Z" fill="#E4E3EE"/>
<path d="M7.7998 261.9V266.6L3.7998 264.3V259.5L7.7998 261.9Z" fill="#919DD6"/>
<path d="M48.6998 259.9V264.6L44.2998 267.1V262.4L48.6998 259.9Z" fill="#B7B6E3"/>
<mask id="mask0_54_222" style="mask-type:luminance" maskUnits="userSpaceOnUse" x="15" y="262" width="22" height="11">
<path d="M36.1 268V272.7C36.1 271.2 35.1 269.7 33.1 268.5C29.1 266.2 22.6 266.2 18.5 268.5C16.5 269.7 15.5 271.2 15.5 272.7V268C15.5 266.5 16.5 265 18.5 263.8C22.5 261.5 29 261.5 33.1 263.8C35.1 265 36.1 266.5 36.1 268Z" fill="white"/>
</mask>
<g mask="url(#mask0_54_222)">
<path d="M36.1 268V272.7C36.1 271.2 35.1 269.7 33.1 268.5C29.1 266.2 22.6 266.2 18.5 268.5C16.5 269.7 15.5 271.2 15.5 272.7V268C15.5 266.5 16.5 265 18.5 263.8C22.5 261.5 29 261.5 33.1 263.8C35.1 265 36.1 266.5 36.1 268Z" fill="#C4C3EC"/>
</g>
<path d="M5.5 271.1V275.8H0V271L5.5 271.1Z" fill="#919DD6"/>
<path d="M51.7998 271.5V276.3L45.7998 276.2V271.5H51.7998Z" fill="#919DD6"/>
<path d="M51.8998 264.8V269.5L51.7998 276.3V271.5L51.8998 264.8Z" fill="#858588"/>
<mask id="mask1_54_222" style="mask-type:luminance" maskUnits="userSpaceOnUse" x="5" y="271" width="3" height="8">
<path d="M7.2 273.6V278.3C6.5 277.5 5.9 276.6 5.5 275.7V271C5.9 271.9 6.5 272.8 7.2 273.6Z" fill="white"/>
</mask>
<g mask="url(#mask1_54_222)">
<path d="M7.2 273.6V278.3C6.5 277.5 5.9 276.6 5.5 275.7V271C5.9 271.9 6.5 272.8 7.2 273.6Z" fill="#C4C3EC"/>
</g>
<mask id="mask2_54_222" style="mask-type:luminance" maskUnits="userSpaceOnUse" x="44" y="271" width="2" height="8">
<path d="M45.7996 271.5V276.2C45.3996 277 44.7996 277.8 44.0996 278.5V273.8C44.7996 273.1 45.3996 272.3 45.7996 271.5Z" fill="white"/>
</mask>
<g mask="url(#mask2_54_222)">
<path d="M45.7996 271.5V276.2C45.3996 277 44.7996 277.8 44.0996 278.5V273.8C44.7996 273.1 45.3996 272.3 45.7996 271.5Z" fill="#C4C3EC"/>
</g>
<mask id="mask3_54_222" style="mask-type:luminance" maskUnits="userSpaceOnUse" x="15" y="278" width="5" height="7">
<path d="M19.6998 279.6V284.3C18.1998 284 16.6998 283.7 15.2998 283.2V278.5C16.6998 279 18.1998 279.3 19.6998 279.6Z" fill="white"/>
</mask>
<g mask="url(#mask3_54_222)">
<path d="M19.6998 279.6V284.3C18.1998 284 16.6998 283.7 15.2998 283.2V278.5C16.6998 279 18.1998 279.3 19.6998 279.6Z" fill="#C4C3EC"/>
</g>
<mask id="mask4_54_222" style="mask-type:luminance" maskUnits="userSpaceOnUse" x="31" y="278" width="5" height="7">
<path d="M35.8004 278.6V283.3C34.4004 283.7 32.9004 284.1 31.4004 284.3V279.6C32.9004 279.4 34.4004 279 35.8004 278.6Z" fill="white"/>
</mask>
<g mask="url(#mask4_54_222)">
<path d="M35.8004 278.6V283.3C34.4004 283.7 32.9004 284.1 31.4004 284.3V279.6C32.9004 279.4 34.4004 279 35.8004 278.6Z" fill="#C4C3EC"/>
</g>
<path d="M11.4002 280.7V285.4L3.2002 280.7V275.9L11.4002 280.7Z" fill="#919DD6"/>
<path d="M15.3004 278.5V283.2L11.4004 285.4V280.7L15.3004 278.5Z" fill="#B7B6E3"/>
<path d="M48.0998 276.2V280.9L39.7998 285.7L39.8998 280.9L48.0998 276.2Z" fill="#B7B6E3"/>
<path d="M39.8998 280.9L39.7998 285.7L35.7998 283.3V278.6L39.8998 280.9Z" fill="#919DD6"/>
<path d="M39.9 280.9L35.8 278.6C34.4 279 32.9 279.4 31.4 279.6V282.8H19.7V279.6C18.2 279.3 16.7 279 15.3 278.5L11.5 280.7L3.3 275.9L7.3 273.6C6.6 272.8 6 271.9 5.6 271H0L0.1 264.3H5.9C6.4 263.5 7 262.6 7.8 261.9L3.8 259.6L12.1 254.8L16.3 257.3C17.6 256.9 19 256.6 20.5 256.4L20.6 253H32.3L32.2 256.6C33.6 256.9 34.9 257.2 36.2 257.6L40.5 255.1L48.7 259.9L44.3 262.4C45 263.2 45.5 264 45.9 264.8H51.9L51.8 271.5H45.8C45.4 272.3 44.8 273.1 44.1 273.8L48.2 276.1L39.9 280.9ZM18.5 272.2C22.5 274.5 29 274.5 33.1 272.2C37.1 269.9 37.1 266.1 33.1 263.8C29.1 261.5 22.6 261.5 18.5 263.8C14.5 266.2 14.5 269.9 18.5 272.2Z" fill="#DAD9E8"/>
<path d="M31.4002 282.8V287.6H19.7002V282.8H31.4002Z" fill="#919DD6"/>
<path d="M53.9996 288.6L53.8996 292L51.0996 290.3V286.9L53.9996 288.6Z" fill="#919DD6"/>
<path d="M83.2996 287.2V290.6L80.0996 292.4L80.1996 289L83.2996 287.2Z" fill="#B7B6E3"/>
<mask id="mask5_54_222" style="mask-type:luminance" maskUnits="userSpaceOnUse" x="59" y="288" width="16" height="9">
<path d="M74.1998 293V296.4C74.1998 295.3 73.4998 294.2 71.9998 293.4C69.0998 291.7 64.3998 291.7 61.4998 293.4C60.0998 294.2 59.2998 295.3 59.2998 296.4V293C59.2998 291.9 59.9998 290.8 61.4998 290C64.3998 288.3 69.0998 288.3 71.9998 290C73.4998 290.8 74.1998 291.9 74.1998 293Z" fill="white"/>
</mask>
<g mask="url(#mask5_54_222)">
<path d="M74.1998 293V296.4C74.1998 295.3 73.4998 294.2 71.9998 293.4C69.0998 291.7 64.3998 291.7 61.4998 293.4C60.0998 294.2 59.2998 295.3 59.2998 296.4V293C59.2998 291.9 59.9998 290.8 61.4998 290C64.3998 288.3 69.0998 288.3 71.9998 290C73.4998 290.8 74.1998 291.9 74.1998 293Z" fill="#C4C3EC"/>
</g>
<path d="M52.2998 295.2V298.6H48.2998V295.2H52.2998Z" fill="#919DD6"/>
<path d="M85.5002 295.5V298.9H81.2002V295.5H85.5002Z" fill="#919DD6"/>
<path d="M85.6 290.7V294.1L85.5 298.9V295.5L85.6 290.7Z" fill="#858588"/>
<mask id="mask6_54_222" style="mask-type:luminance" maskUnits="userSpaceOnUse" x="52" y="295" width="2" height="6">
<path d="M53.4998 297V300.4C52.9998 299.8 52.5998 299.2 52.2998 298.5V295.1C52.5998 295.8 52.9998 296.4 53.4998 297Z" fill="white"/>
</mask>
<g mask="url(#mask6_54_222)">
<path d="M53.4998 297V300.4C52.9998 299.8 52.5998 299.2 52.2998 298.5V295.1C52.5998 295.8 52.9998 296.4 53.4998 297Z" fill="#C4C3EC"/>
</g>
<mask id="mask7_54_222" style="mask-type:luminance" maskUnits="userSpaceOnUse" x="80" y="295" width="2" height="6">
<path d="M81.2 295.5V298.9C80.9 299.5 80.5 300 80 300.6V297.2C80.5 296.6 80.9 296.1 81.2 295.5Z" fill="white"/>
</mask>
<g mask="url(#mask7_54_222)">
<path d="M81.2 295.5V298.9C80.9 299.5 80.5 300 80 300.6V297.2C80.5 296.6 80.9 296.1 81.2 295.5Z" fill="#C4C3EC"/>
</g>
<mask id="mask8_54_222" style="mask-type:luminance" maskUnits="userSpaceOnUse" x="59" y="300" width="4" height="5">
<path d="M62.4998 301.3V304.7C61.3998 304.5 60.2998 304.2 59.2998 303.9V300.5C60.2998 300.9 61.3998 301.1 62.4998 301.3Z" fill="white"/>
</mask>
<g mask="url(#mask8_54_222)">
<path d="M62.4998 301.3V304.7C61.3998 304.5 60.2998 304.2 59.2998 303.9V300.5C60.2998 300.9 61.3998 301.1 62.4998 301.3Z" fill="#C4C3EC"/>
</g>
<mask id="mask9_54_222" style="mask-type:luminance" maskUnits="userSpaceOnUse" x="70" y="300" width="4" height="5">
<path d="M73.9998 300.6V304C72.9998 304.3 71.8998 304.6 70.7998 304.7V301.3C71.9998 301.2 72.9998 300.9 73.9998 300.6Z" fill="white"/>
</mask>
<g mask="url(#mask9_54_222)">
<path d="M73.9998 300.6V304C72.9998 304.3 71.8998 304.6 70.7998 304.7V301.3C71.9998 301.2 72.9998 300.9 73.9998 300.6Z" fill="#C4C3EC"/>
</g>
<path d="M56.5996 302.1L56.4996 305.5L50.5996 302.1V298.7L56.5996 302.1Z" fill="#919DD6"/>
<path d="M59.3 300.5V303.9L56.5 305.5L56.6 302.1L59.3 300.5Z" fill="#B7B6E3"/>
<path d="M82.8994 298.8V302.2L76.8994 305.7V302.3L82.8994 298.8Z" fill="#B7B6E3"/>
<path d="M76.9 302.3V305.7L74 304V300.6L76.9 302.3Z" fill="#919DD6"/>
<path d="M76.8998 302.3L73.9998 300.6C72.9998 300.9 71.8998 301.2 70.7998 301.3V303.6H62.3998V301.3C61.2998 301.1 60.1998 300.9 59.1998 300.5L56.3998 302.1L50.4998 298.7L53.3998 297.1C52.8998 296.5 52.4998 295.9 52.1998 295.2H48.2998L48.3998 290.4H52.5998C52.8998 289.8 53.3998 289.2 53.9998 288.6L51.0998 286.9L57.0998 283.5L60.1998 285.3C61.1998 285 62.1998 284.8 63.1998 284.6V282.1H71.5998V284.7C72.5998 284.9 73.4998 285.1 74.4998 285.4L77.5998 283.6L83.4998 287L80.2998 288.8C80.7998 289.3 81.1998 289.9 81.4998 290.5H85.7998L85.6998 295.3H81.3998C81.0998 295.9 80.6998 296.4 80.1998 297L83.0998 298.7L76.8998 302.3ZM61.5998 296C64.4998 297.7 69.1998 297.7 71.9998 296C74.8998 294.3 74.8998 291.6 71.9998 290C69.0998 288.3 64.3998 288.3 61.4998 290C58.6998 291.7 58.6998 294.4 61.5998 296Z" fill="#DAD9E8"/>
<path d="M70.9 303.6V307H62.5V303.6H70.9Z" fill="#919DD6"/>
<path d="M21.7 296.5V299.7L19.5 298.5L19.6 295.3L21.7 296.5Z" fill="#919DD6"/>
<path d="M43.6998 295.4V298.7L41.2998 300L41.3998 296.8L43.6998 295.4Z" fill="#B7B6E3"/>
<path d="M20.5 301.5V304.7H17.5V301.5H20.5Z" fill="#919DD6"/>
<path d="M45.3996 301.7L45.2996 304.9H42.0996V301.7H45.3996Z" fill="#919DD6"/>
<path d="M45.3998 298.1V301.3L45.2998 304.9L45.3998 301.7V298.1Z" fill="#858588"/>
<mask id="mask10_54_222" style="mask-type:luminance" maskUnits="userSpaceOnUse" x="20" y="301" width="2" height="5">
<path d="M21.4 302.8V306C21 305.6 20.7 305.1 20.5 304.6V301.4C20.7 301.9 21 302.4 21.4 302.8Z" fill="white"/>
</mask>
<g mask="url(#mask10_54_222)">
<path d="M21.4 302.8V306C21 305.6 20.7 305.1 20.5 304.6V301.4C20.7 301.9 21 302.4 21.4 302.8Z" fill="#C4C3EC"/>
</g>
<mask id="mask11_54_222" style="mask-type:luminance" maskUnits="userSpaceOnUse" x="41" y="301" width="2" height="6">
<path d="M42.1002 301.7V304.9C41.9002 305.3 41.6002 305.7 41.2002 306.1V302.9C41.6002 302.5 41.9002 302.1 42.1002 301.7Z" fill="white"/>
</mask>
<g mask="url(#mask11_54_222)">
<path d="M42.1002 301.7V304.9C41.9002 305.3 41.6002 305.7 41.2002 306.1V302.9C41.6002 302.5 41.9002 302.1 42.1002 301.7Z" fill="#C4C3EC"/>
</g>
<mask id="mask12_54_222" style="mask-type:luminance" maskUnits="userSpaceOnUse" x="25" y="305" width="4" height="5">
<path d="M28.1002 306.1V309.3C27.3002 309.2 26.5002 309 25.7002 308.7V305.5C26.5002 305.7 27.3002 305.9 28.1002 306.1Z" fill="white"/>
</mask>
<g mask="url(#mask12_54_222)">
<path d="M28.1002 306.1V309.3C27.3002 309.2 26.5002 309 25.7002 308.7V305.5C26.5002 305.7 27.3002 305.9 28.1002 306.1Z" fill="#C4C3EC"/>
</g>
<mask id="mask13_54_222" style="mask-type:luminance" maskUnits="userSpaceOnUse" x="34" y="305" width="3" height="5">
<path d="M36.7994 305.5V308.7C35.9994 308.9 35.2994 309.1 34.3994 309.3V306.1C35.1994 305.9 35.9994 305.8 36.7994 305.5Z" fill="white"/>
</mask>
<g mask="url(#mask13_54_222)">
<path d="M36.7994 305.5V308.7C35.9994 308.9 35.2994 309.1 34.3994 309.3V306.1C35.1994 305.9 35.9994 305.8 36.7994 305.5Z" fill="#C4C3EC"/>
</g>
<path d="M25.7002 305.5V308.7L23.7002 309.9V306.7L25.7002 305.5Z" fill="#B7B6E3"/>
<path d="M23.7002 306.7V309.9L19.2002 307.3V304.1L23.7002 306.7Z" fill="#919DD6"/>
<path d="M43.3994 304.2V307.4L38.8994 310L38.9994 306.8L43.3994 304.2Z" fill="#B7B6E3"/>
<path d="M38.9998 306.8L38.8998 310L36.7998 308.7V305.5L38.9998 306.8Z" fill="#919DD6"/>
<path d="M39.2998 292.9L43.6998 295.5L41.2998 296.8C41.6998 297.2 41.9998 297.6 42.1998 298.1H45.3998L45.2998 301.7H42.0998C41.8998 302.1 41.5998 302.5 41.1998 302.9L43.3998 304.2L38.8998 306.8L36.6998 305.5C35.8998 305.7 35.1998 305.9 34.2998 306.1V307.8H27.9998V306.1C27.1998 306 26.3998 305.8 25.5998 305.5L23.4998 306.7L19.0998 304.1L21.1998 302.9C20.7998 302.5 20.4998 302 20.2998 301.5H17.2998V297.9H20.3998C20.6998 297.4 20.9998 297 21.3998 296.6L19.1998 295.3L23.6998 292.7L25.9998 294C26.6998 293.8 27.4998 293.6 28.1998 293.5V291.7H34.4998V293.6C35.1998 293.7 35.9998 293.9 36.5998 294.1L39.2998 292.9Z" fill="#DAD9E8"/>
<path d="M34.3996 307.8V311H28.0996V307.8H34.3996Z" fill="#919DD6"/>
<path d="M116.799 160V165.7L116.699 169.6V163.9L116.799 160Z" fill="#848487"/>
<path d="M90.2994 169.7L90.1994 175.4L85.8994 172.9V167.1L90.2994 169.7Z" fill="#919DD6"/>
<path d="M134.6 167.5V173.3L129.8 176V170.2L134.6 167.5Z" fill="#B7B6E3"/>
<mask id="mask14_54_222" style="mask-type:luminance" maskUnits="userSpaceOnUse" x="94" y="168" width="30" height="15">
<path d="M123.7 176.4V182.2C123.7 180.1 122.3 177.9 119.5 176.3C113.8 173 104.6 173 98.8996 176.3C96.0996 177.9 94.5996 180.1 94.5996 182.3V176.5C94.5996 174.3 95.9996 172.2 98.8996 170.5C104.6 167.2 113.8 167.2 119.5 170.5C122.3 172.1 123.7 174.2 123.7 176.4Z" fill="white"/>
</mask>
<g mask="url(#mask14_54_222)">
<path d="M123.7 176.4V182.2C123.7 180.1 122.3 177.9 119.5 176.3C113.8 173 104.6 173 98.8996 176.3C96.0996 177.9 94.5996 180.1 94.5996 182.3V176.5C94.5996 174.3 95.9996 172.2 98.8996 170.5C104.6 167.2 113.8 167.2 119.5 170.5C122.3 172.1 123.7 174.2 123.7 176.4Z" fill="#C4C3EC"/>
</g>
<path d="M87.6998 179.6V185.4H81.7998V179.6H87.6998Z" fill="#919DD6"/>
<path d="M137.899 180.1L137.799 185.9H131.399V180.1H137.899Z" fill="#919DD6"/>
<path d="M138 172.8V178.6L137.8 185.9L137.9 180.1L138 172.8Z" fill="#858588"/>
<mask id="mask15_54_222" style="mask-type:luminance" maskUnits="userSpaceOnUse" x="87" y="179" width="3" height="10">
<path d="M89.5992 182.4V188.2C88.7992 187.3 88.1992 186.4 87.6992 185.4V179.6C88.1992 180.6 88.7992 181.5 89.5992 182.4Z" fill="white"/>
</mask>
<g mask="url(#mask15_54_222)">
<path d="M89.5992 182.4V188.2C88.7992 187.3 88.1992 186.4 87.6992 185.4V179.6C88.1992 180.6 88.7992 181.5 89.5992 182.4Z" fill="#C4C3EC"/>
</g>
<mask id="mask16_54_222" style="mask-type:luminance" maskUnits="userSpaceOnUse" x="129" y="180" width="3" height="9">
<path d="M131.4 180.1V185.9C130.9 186.8 130.3 187.6 129.6 188.4V182.6C130.3 181.8 130.9 181 131.4 180.1Z" fill="white"/>
</mask>
<g mask="url(#mask16_54_222)">
<path d="M131.4 180.1V185.9C130.9 186.8 130.3 187.6 129.6 188.4V182.6C130.3 181.8 130.9 181 131.4 180.1Z" fill="#C4C3EC"/>
</g>
<mask id="mask17_54_222" style="mask-type:luminance" maskUnits="userSpaceOnUse" x="98" y="187" width="6" height="8">
<path d="M103.199 188.9V194.7C101.499 194.4 99.8994 194 98.3994 193.5V187.7C99.8994 188.2 101.499 188.6 103.199 188.9Z" fill="white"/>
</mask>
<g mask="url(#mask17_54_222)">
<path d="M103.199 188.9V194.7C101.499 194.4 99.8994 194 98.3994 193.5V187.7C99.8994 188.2 101.499 188.6 103.199 188.9Z" fill="#C4C3EC"/>
</g>
<mask id="mask18_54_222" style="mask-type:luminance" maskUnits="userSpaceOnUse" x="115" y="187" width="6" height="8">
<path d="M120.6 187.8V193.6C119.1 194.1 117.5 194.5 115.8 194.7V188.9C117.5 188.6 119 188.3 120.6 187.8Z" fill="white"/>
</mask>
<g mask="url(#mask18_54_222)">
<path d="M120.6 187.8V193.6C119.1 194.1 117.5 194.5 115.8 194.7V188.9C117.5 188.6 119 188.3 120.6 187.8Z" fill="#C4C3EC"/>
</g>
<path d="M94.1992 190.1V195.8L85.1992 190.7L85.2992 184.9L94.1992 190.1Z" fill="#919DD6"/>
<path d="M98.2992 187.7V193.4L94.1992 195.8V190.1L98.2992 187.7Z" fill="#B7B6E3"/>
<path d="M133.9 185.1V190.9L125 196.1V190.3L133.9 185.1Z" fill="#B7B6E3"/>
<path d="M125 190.3V196.1L120.6 193.5V187.8L125 190.3Z" fill="#919DD6"/>
<path d="M125 190.3L120.6 187.8C119.1 188.3 117.5 188.7 115.8 188.9V192.4H103.1V188.9C101.4 188.6 99.7996 188.2 98.2996 187.7L94.0996 190.1L85.1996 184.9L89.4996 182.4C88.6996 181.5 88.0996 180.6 87.5996 179.6H81.5996L81.6996 172.3H87.9996C88.4996 171.4 89.1996 170.5 90.0996 169.7L85.7996 167.2L94.7996 162L99.3996 164.7C100.9 164.3 102.4 163.9 103.9 163.7L104 160H116.7L116.6 163.9C118.1 164.2 119.5 164.5 120.9 165L125.6 162.3L134.5 167.5L129.7 170.2C130.4 171 131 171.9 131.4 172.8H137.9L137.8 180.1H131.3C130.8 181 130.2 181.8 129.5 182.6L133.9 185.1L125 190.3ZM98.7996 182.3C104.5 185.6 113.7 185.6 119.4 182.3C125.1 179 125.1 173.7 119.4 170.4C113.7 167.1 104.5 167.1 98.7996 170.4C93.0996 173.7 93.0996 179.1 98.7996 182.3Z" fill="#DAD9E8"/>
<path d="M115.8 192.4V198.1H103.1V192.4H115.8Z" fill="#919DD6"/>
<path d="M125.801 202L124.101 201.8L124.301 201.7L126.001 201.9L125.801 202Z" fill="#E4E3EE"/>
<path d="M126.001 201.9L124.301 201.7C124.801 201.4 125.301 201.2 125.801 201L127.301 201.3C126.801 201.4 126.401 201.6 126.001 201.9Z" fill="#E4E3EE"/>
<path d="M127.301 201.2L125.801 200.9C129.401 199.3 134.201 198.8 138.701 199.5C158.901 202.9 176.101 208.8 189.901 216.7L188.201 216.9C174.801 209.1 157.301 203.5 138.101 200C134.301 199.5 130.301 199.9 127.301 201.2Z" fill="#E4E3EE"/>
<path d="M220.001 248.2V251.8C220.001 254 218.501 256.1 215.801 257.7V254.1C218.601 252.5 220.001 250.4 220.001 248.2Z" fill="#B7B6E3"/>
<path d="M188.201 217L189.901 216.8C196.101 220.4 201.501 224.3 206.201 228.7H204.201C199.501 224.4 194.201 220.5 188.201 217Z" fill="#E4E3EE"/>
<path d="M204.102 228.8H206.102C211.602 233.9 216.102 239.6 219.302 245.8C220.902 248.8 219.502 252 215.702 254.2L214.002 252.4C217.102 250.6 218.302 247.9 217.002 245.4C213.902 239.4 209.502 233.9 204.102 228.8Z" fill="#E4E3EE"/>
<path d="M215.801 254.1V257.7L215.501 257.8V254.3L215.801 254.1Z" fill="#B7B6E3"/>
<path d="M214.201 252.3L215.801 254.1L215.501 254.3L213.801 252.5L214.201 252.3Z" fill="#E4E3EE"/>
<path d="M188.201 217C201.401 224.6 211.101 234.5 217.201 245.3C218.501 247.8 217.401 250.5 214.201 252.3L213.901 252.5C209.001 255.4 201.301 255.1 196.801 252.5C195.701 251.9 194.801 251.1 194.201 250.2C188.101 241.6 179.501 234.4 168.801 228.3C157.901 222 145.401 217 130.001 213.5C128.401 213.1 127.101 212.6 126.001 212C121.401 209.4 121.001 204.9 125.901 202.1L126.101 202C129.201 200.2 133.801 199.5 138.101 200.2C157.301 203.5 174.701 209.2 188.201 217Z" fill="#EBEBF1"/>
<path d="M215.501 254.3V257.9C209.601 261.3 200.501 261 195.001 257.9C193.701 257.2 192.601 256.2 191.801 255.2C185.701 247 177.401 239.8 166.901 233.7C156.301 227.6 143.501 222.7 128.901 219.2C127.001 218.7 125.401 218.1 124.101 217.4C121.301 215.8 119.801 213.6 119.801 211.4V207.8C119.801 210 121.301 212.2 124.101 213.8C125.401 214.6 127.001 215.2 128.901 215.6C143.501 219.1 156.301 224 166.901 230.1C177.301 236.1 185.701 243.3 191.801 251.6C192.601 252.7 193.701 253.6 195.001 254.3C200.501 257.4 209.601 257.7 215.501 254.3Z" fill="#B7B6E3"/>
<path d="M213.801 252.5L215.501 254.3C214.301 255 213.101 255.5 211.701 255.9L210.601 253.8C211.801 253.5 212.901 253.1 213.801 252.5Z" fill="#E4E3EE"/>
<path d="M210.7 253.8L211.8 255.9C206.4 257.5 199.9 256.9 195.5 254.5L197.1 252.7C200.7 254.6 206.2 255.1 210.7 253.8Z" fill="#E4E3EE"/>
<path d="M197.101 252.7L195.501 254.5C195.401 254.4 195.201 254.3 195.101 254.3C193.801 253.6 192.701 252.6 191.901 251.6C185.801 243.4 177.501 236.2 167.001 230.1C165.801 229.4 164.501 228.7 163.301 228.1L164.901 226.3C166.201 227 167.401 227.7 168.701 228.4C179.301 234.5 188.001 241.7 194.101 250.3C194.801 251.2 195.701 252 196.701 252.6C196.801 252.6 197.001 252.6 197.101 252.7Z" fill="#E4E3EE"/>
<path d="M164.901 226.2L163.301 228C153.501 222.8 142.001 218.6 129.001 215.5C127.301 215.1 125.901 214.6 124.601 213.9L126.201 212.1C127.201 212.6 128.501 213.1 129.901 213.4C143.501 216.6 154.901 220.9 164.901 226.2Z" fill="#E4E3EE"/>
<path d="M126.3 212.1L124.7 213.9C124.5 213.8 124.4 213.7 124.3 213.7C118.9 210.6 118.3 205.2 124.2 201.8L125.9 202C121 204.9 121.4 209.3 126 211.9C126 212 126.1 212.1 126.3 212.1Z" fill="#E4E3EE"/>
<path d="M194.501 227.3L198.901 224.8L188.001 163.2L183.601 165.8L194.501 227.3Z" fill="#042F8F"/>
<path d="M183.6 165.8L188 163.2L157.1 145.5L152.7 148L183.6 165.8Z" fill="#02196A"/>
<path d="M152.7 148L163.6 209.5L194.5 227.3L183.6 165.8L152.7 148Z" fill="#042F8F"/>
<path d="M81 10.4L86.3 7.3C87.1 6.8 88.2 6.9 89.5 7.6L84.2 10.7C82.9 10 81.8 9.9 81 10.4Z" fill="#DAD9E8"/>
<mask id="mask19_54_222" style="mask-type:luminance" maskUnits="userSpaceOnUse" x="81" y="6" width="9" height="5">
<path d="M81 10.4L86.3 7.3C87.1 6.8 88.2 6.9 89.5 7.6L84.2 10.7C82.9 10 81.8 9.9 81 10.4Z" fill="white"/>
</mask>
<g mask="url(#mask19_54_222)">
<path d="M81 10.4L86.3 7.3C87.1 6.8 88.2 6.9 89.5 7.6L84.2 10.7C82.9 10 81.8 9.9 81 10.4Z" fill="#DAD9E8"/>
</g>
<path d="M282.8 251.7L277.5 254.8C278.3 254.3 278.8 253.3 278.8 251.9L284.1 248.8C284.1 250.3 283.6 251.3 282.8 251.7Z" fill="#B7B6E3"/>
<mask id="mask20_54_222" style="mask-type:luminance" maskUnits="userSpaceOnUse" x="277" y="248" width="8" height="7">
<path d="M282.8 251.7L277.5 254.8C278.3 254.3 278.8 253.3 278.8 251.9L284.1 248.8C284.1 250.3 283.6 251.3 282.8 251.7Z" fill="white"/>
</mask>
<g mask="url(#mask20_54_222)">
<path d="M278.8 251.9L284.1 248.8C284.1 250.2 283.6 251.2 282.8 251.7L277.5 254.8C278.3 254.3 278.8 253.3 278.8 251.9Z" fill="#B7B6E3"/>
</g>
<path d="M279.101 128.4L284.501 125.3L284.101 248.9L278.801 251.9L279.101 128.4Z" fill="#B7B6E3"/>
<path d="M84.1006 10.7L89.5006 7.60001L280.001 117.6L274.701 120.7L84.1006 10.7Z" fill="#DAD9E8"/>
<path d="M274.7 120.7L280 117.6C282.5 119 284.5 122.5 284.5 125.3L279.2 128.4C279.1 125.6 277.1 122.1 274.7 120.7Z" fill="#DAD9E8"/>
<mask id="mask21_54_222" style="mask-type:luminance" maskUnits="userSpaceOnUse" x="274" y="117" width="11" height="12">
<path d="M274.7 120.7L280 117.6C282.5 119 284.5 122.5 284.5 125.3L279.2 128.4C279.1 125.6 277.1 122.1 274.7 120.7Z" fill="white"/>
</mask>
<g mask="url(#mask21_54_222)">
<path d="M274.7 120.7L280 117.6C282.5 119 284.5 122.5 284.5 125.3L279.2 128.4C279.1 125.6 277.1 122.1 274.7 120.7Z" fill="#DAD9E8"/>
</g>
<path d="M274.7 120.7C277.2 122.1 279.2 125.6 279.2 128.4L278.9 251.9C278.9 254.7 276.9 255.9 274.4 254.5L83.9004 144.5C81.4004 143.1 79.4004 139.6 79.4004 136.8L79.8004 13.3C79.8004 10.5 81.8004 9.30001 84.3004 10.8L274.7 120.7Z" fill="#EBEBF1"/>
<path d="M275.5 128.4L275.2 248.9V250.7L85.6 141.3C84.3 140.5 83 138.3 83 136.8L83.3 14.5L84.8 15.4L272.8 123.9C274.2 124.6 275.5 126.9 275.5 128.4Z" fill="#DAD9E8"/>
<path d="M275.501 128.4L275.201 248.9L87.2006 140.4C85.9006 139.6 84.6006 137.4 84.6006 135.9L84.9006 15.4L272.901 123.9C274.201 124.6 275.501 126.9 275.501 128.4Z" fill="url(#paint0_linear_54_222)"/>
<g opacity="0.3">
<path d="M137 240.9L118.9 230.8L106.2 241.3L137 240.9Z" fill="#4A2680"/>
</g>
<path d="M93.5 250.7L93.7 251.7L161.6 290.5L161.3 289.4L93.5 250.7Z" fill="#EBEBF1"/>
<path d="M161.3 289.4L161.6 290.5L188.1 269.2L187.8 266.6L161.3 289.4Z" fill="#B7B6E3"/>
<path d="M93.5 250.7L161.3 289.4L187.8 266.6L120 227.8L93.5 250.7Z" fill="#DAD9E8"/>
<path d="M117.5 230.5L117.7 231.2L121.3 233.3L121.1 232.6L117.5 230.5Z" fill="#C4C3EC"/>
<path d="M121.1 232.6L121.3 233.3L123.2 231.6L123 231L121.1 232.6Z" fill="#B7B6E3"/>
<path d="M117.5 230.5L121.1 232.6L123 231L119.4 228.9L117.5 230.5Z" fill="#EBEBF1"/>
<path d="M112.6 235L112.8 235.7L116.4 237.8L116.3 237.1L112.6 235Z" fill="#C4C3EC"/>
<path d="M116.3 237.1L116.4 237.8L120 234.8L119.8 234.1L116.3 237.1Z" fill="#B7B6E3"/>
<path d="M112.6 235L116.3 237.1L119.8 234.1L116.2 232L112.6 235Z" fill="#EBEBF1"/>
<path d="M122.1 233.2L122.2 233.8L125.9 235.9L125.7 235.2L122.1 233.2Z" fill="#C4C3EC"/>
<path d="M125.699 235.2L125.899 235.9L127.799 234.2L127.599 233.6L125.699 235.2Z" fill="#B7B6E3"/>
<path d="M122.1 233.2L125.7 235.2L127.6 233.6L124 231.5L122.1 233.2Z" fill="#EBEBF1"/>
<path d="M117 237.5L117.2 238.2L120.8 240.3L120.7 239.6L117 237.5Z" fill="#C4C3EC"/>
<path d="M120.7 239.6L120.8 240.3L124.4 237.3L124.2 236.6L120.7 239.6Z" fill="#B7B6E3"/>
<path d="M117 237.5L120.7 239.6L124.2 236.6L120.6 234.5L117 237.5Z" fill="#EBEBF1"/>
<path d="M126.6 235.8L126.8 236.4L130.4 238.5L130.3 237.8L126.6 235.8Z" fill="#C4C3EC"/>
<path d="M130.3 237.8L130.4 238.5L132.3 236.9L132.2 236.2L130.3 237.8Z" fill="#B7B6E3"/>
<path d="M126.6 235.8L130.3 237.8L132.2 236.2L128.6 234.1L126.6 235.8Z" fill="#EBEBF1"/>
<path d="M121.399 240L121.599 240.7L125.199 242.8L124.999 242.1L121.399 240Z" fill="#C4C3EC"/>
<path d="M124.999 242.1L125.199 242.8L128.699 239.8L128.599 239.1L124.999 242.1Z" fill="#B7B6E3"/>
<path d="M121.399 240L124.999 242.1L128.599 239.1L124.999 237L121.399 240Z" fill="#EBEBF1"/>
<path d="M131.2 238.4L131.4 239.1L135 241.1L134.8 240.4L131.2 238.4Z" fill="#C4C3EC"/>
<path d="M134.8 240.4L135 241.1L136.9 239.5L136.7 238.8L134.8 240.4Z" fill="#B7B6E3"/>
<path d="M131.2 238.4L134.8 240.4L136.7 238.8L133.1 236.7L131.2 238.4Z" fill="#EBEBF1"/>
<path d="M125.8 242.6L126 243.2L129.6 245.3L129.4 244.6L125.8 242.6Z" fill="#C4C3EC"/>
<path d="M129.399 244.6L129.599 245.3L133.099 242.3L132.999 241.6L129.399 244.6Z" fill="#B7B6E3"/>
<path d="M125.8 242.6L129.4 244.6L133 241.6L129.3 239.5L125.8 242.6Z" fill="#EBEBF1"/>
<path d="M130.2 245.1L130.4 245.7L134 247.8L133.8 247.1L130.2 245.1Z" fill="#C4C3EC"/>
<path d="M133.8 247.1L134 247.8L137.5 244.8L137.4 244.1L133.8 247.1Z" fill="#B7B6E3"/>
<path d="M130.2 245.1L133.8 247.1L137.4 244.1L133.7 242L130.2 245.1Z" fill="#EBEBF1"/>
<path d="M138 242.3L138.2 243L141.8 245L141.7 244.4L138 242.3Z" fill="#C4C3EC"/>
<path d="M141.7 244.4L141.8 245L143.8 243.4L143.6 242.7L141.7 244.4Z" fill="#B7B6E3"/>
<path d="M138 242.3L141.7 244.4L143.6 242.7L140 240.6L138 242.3Z" fill="#EBEBF1"/>
<path d="M134.6 247.6L134.8 248.3L138.4 250.3L138.2 249.6L134.6 247.6Z" fill="#C4C3EC"/>
<path d="M138.199 249.6L138.399 250.3L141.899 247.3L141.699 246.6L138.199 249.6Z" fill="#B7B6E3"/>
<path d="M134.6 247.6L138.2 249.6L141.7 246.6L138.1 244.5L134.6 247.6Z" fill="#EBEBF1"/>
<path d="M142.6 244.9L142.8 245.6L146.4 247.6L146.2 247L142.6 244.9Z" fill="#C4C3EC"/>
<path d="M146.199 247L146.399 247.6L148.299 246L148.199 245.3L146.199 247Z" fill="#B7B6E3"/>
<path d="M142.6 244.9L146.2 247L148.2 245.3L144.5 243.2L142.6 244.9Z" fill="#EBEBF1"/>
<path d="M139 250.1L139.2 250.8L142.8 252.8L142.6 252.1L139 250.1Z" fill="#C4C3EC"/>
<path d="M142.6 252.1L142.8 252.8L146.3 249.8L146.1 249.1L142.6 252.1Z" fill="#B7B6E3"/>
<path d="M139 250.1L142.6 252.1L146.1 249.1L142.5 247L139 250.1Z" fill="#EBEBF1"/>
<path d="M147.2 247.5L147.4 248.2L151 250.3L150.8 249.6L147.2 247.5Z" fill="#C4C3EC"/>
<path d="M150.8 249.6L151 250.3L152.9 248.6L152.7 247.9L150.8 249.6Z" fill="#B7B6E3"/>
<path d="M147.2 247.5L150.8 249.6L152.7 247.9L149.1 245.8L147.2 247.5Z" fill="#EBEBF1"/>
<path d="M143.399 252.6L143.599 253.3L147.199 255.3L146.999 254.7L143.399 252.6Z" fill="#C4C3EC"/>
<path d="M146.999 254.7L147.199 255.3L150.699 252.3L150.499 251.6L146.999 254.7Z" fill="#B7B6E3"/>
<path d="M143.399 252.6L146.999 254.7L150.499 251.6L146.899 249.6L143.399 252.6Z" fill="#EBEBF1"/>
<path d="M151.8 250.1L151.9 250.8L155.5 252.9L155.4 252.2L151.8 250.1Z" fill="#C4C3EC"/>
<path d="M155.399 252.2L155.499 252.9L157.499 251.2L157.299 250.5L155.399 252.2Z" fill="#B7B6E3"/>
<path d="M151.8 250.1L155.4 252.2L157.3 250.5L153.7 248.5L151.8 250.1Z" fill="#EBEBF1"/>
<path d="M147.8 255.1L147.9 255.8L151.6 257.8L151.4 257.2L147.8 255.1Z" fill="#C4C3EC"/>
<path d="M151.399 257.2L151.599 257.8L155.099 254.8L154.899 254.1L151.399 257.2Z" fill="#B7B6E3"/>
<path d="M147.8 255.1L151.4 257.2L154.9 254.1L151.3 252.1L147.8 255.1Z" fill="#EBEBF1"/>
<path d="M158.6 254L158.8 254.7L162.4 256.8L162.2 256.1L158.6 254Z" fill="#C4C3EC"/>
<path d="M162.199 256.1L162.399 256.8L164.299 255.1L164.099 254.4L162.199 256.1Z" fill="#B7B6E3"/>
<path d="M158.6 254L162.2 256.1L164.1 254.4L160.5 252.4L158.6 254Z" fill="#EBEBF1"/>
<path d="M152.2 257.6L152.3 258.3L156 260.4L155.8 259.7L152.2 257.6Z" fill="#C4C3EC"/>
<path d="M155.8 259.7L156 260.4L159.5 257.3L159.3 256.6L155.8 259.7Z" fill="#B7B6E3"/>
<path d="M152.2 257.6L155.8 259.7L159.3 256.6L155.7 254.6L152.2 257.6Z" fill="#EBEBF1"/>
<path d="M163.2 256.6L163.3 257.3L167 259.4L166.8 258.7L163.2 256.6Z" fill="#C4C3EC"/>
<path d="M166.8 258.7L167 259.4L168.9 257.7L168.7 257L166.8 258.7Z" fill="#B7B6E3"/>
<path d="M163.2 256.6L166.8 258.7L168.7 257L165.1 255L163.2 256.6Z" fill="#EBEBF1"/>
<path d="M156.5 260.1L156.7 260.8L160.3 262.9L160.2 262.2L156.5 260.1Z" fill="#C4C3EC"/>
<path d="M160.2 262.2L160.3 262.9L163.9 259.8L163.7 259.1L160.2 262.2Z" fill="#B7B6E3"/>
<path d="M156.5 260.1L160.2 262.2L163.7 259.1L160.1 257.1L156.5 260.1Z" fill="#EBEBF1"/>
<path d="M167.7 259.2L167.9 259.9L171.5 262L171.4 261.3L167.7 259.2Z" fill="#C4C3EC"/>
<path d="M171.4 261.3L171.5 262L173.5 260.3L173.3 259.7L171.4 261.3Z" fill="#B7B6E3"/>
<path d="M167.7 259.2L171.4 261.3L173.3 259.7L169.7 257.6L167.7 259.2Z" fill="#EBEBF1"/>
<path d="M160.899 262.6L161.099 263.3L164.699 265.4L164.599 264.7L160.899 262.6Z" fill="#C4C3EC"/>
<path d="M164.6 264.7L164.7 265.4L168.3 262.3L168.1 261.7L164.6 264.7Z" fill="#B7B6E3"/>
<path d="M160.899 262.6L164.599 264.7L168.099 261.7L164.499 259.6L160.899 262.6Z" fill="#EBEBF1"/>
<path d="M172.3 261.9L172.5 262.5L176.1 264.6L175.9 263.9L172.3 261.9Z" fill="#C4C3EC"/>
<path d="M175.899 263.9L176.099 264.6L177.999 263L177.899 262.3L175.899 263.9Z" fill="#B7B6E3"/>
<path d="M172.3 261.9L175.9 263.9L177.9 262.3L174.2 260.2L172.3 261.9Z" fill="#EBEBF1"/>
<path d="M165.3 265.1L165.5 265.8L169.1 267.9L169 267.2L165.3 265.1Z" fill="#C4C3EC"/>
<path d="M169 267.2L169.1 267.9L172.6 264.8L172.5 264.2L169 267.2Z" fill="#B7B6E3"/>
<path d="M165.3 265.1L169 267.2L172.5 264.2L168.9 262.1L165.3 265.1Z" fill="#EBEBF1"/>
<path d="M169.7 267.6L169.9 268.3L173.5 270.4L173.3 269.7L169.7 267.6Z" fill="#C4C3EC"/>
<path d="M173.3 269.7L173.5 270.4L177 267.4L176.9 266.7L173.3 269.7Z" fill="#B7B6E3"/>
<path d="M169.7 267.6L173.3 269.7L176.9 266.7L173.2 264.6L169.7 267.6Z" fill="#EBEBF1"/>
<path d="M179.2 265.8L179.3 266.5L183 268.5L182.8 267.8L179.2 265.8Z" fill="#C4C3EC"/>
<path d="M182.8 267.8L183 268.5L184.9 266.9L184.7 266.2L182.8 267.8Z" fill="#B7B6E3"/>
<path d="M179.2 265.8L182.8 267.8L184.7 266.2L181.1 264.1L179.2 265.8Z" fill="#EBEBF1"/>
<path d="M174.1 270.1L174.3 270.8L177.9 272.9L177.7 272.2L174.1 270.1Z" fill="#C4C3EC"/>
<path d="M177.699 272.2L177.899 272.9L181.399 269.9L181.299 269.2L177.699 272.2Z" fill="#B7B6E3"/>
<path d="M174.1 270.1L177.7 272.2L181.3 269.2L177.6 267.1L174.1 270.1Z" fill="#EBEBF1"/>
<path d="M112.101 240.7L112.201 241.4L114.401 242.7L114.301 242L112.101 240.7Z" fill="#C4C3EC"/>
<path d="M114.3 242L114.4 242.7L118 239.6L117.8 238.9L114.3 242Z" fill="#B7B6E3"/>
<path d="M104.2 242.3L104.4 243L108 245L107.9 244.3L104.2 242.3Z" fill="#C4C3EC"/>
<path d="M104.2 242.3L107.9 244.3L112.1 240.7L114.3 242L117.8 238.9L112 235.6L110.7 236.7L108.4 238.7L104.2 242.3Z" fill="#EBEBF1"/>
<path d="M107.9 244.3L108 245L112.2 241.4L112.1 240.7L107.9 244.3Z" fill="#B7B6E3"/>
<path d="M118.601 244.5L118.801 245.2L122.301 242.1L122.201 241.4L118.601 244.5Z" fill="#B7B6E3"/>
<path d="M115 242.4L115.2 243.1L118.8 245.2L118.6 244.5L115 242.4Z" fill="#C4C3EC"/>
<path d="M115 242.4L118.6 244.5L122.2 241.4L118.6 239.4L115 242.4Z" fill="#EBEBF1"/>
<path d="M108.601 244.8L108.801 245.5L112.401 247.5L112.201 246.9L108.601 244.8Z" fill="#C4C3EC"/>
<path d="M108.601 244.8L112.201 246.9L115.801 243.8L112.201 241.7L108.601 244.8Z" fill="#EBEBF1"/>
<path d="M112.2 246.9L112.4 247.5L115.9 244.5L115.8 243.8L112.2 246.9Z" fill="#B7B6E3"/>
<path d="M119.399 244.9L119.599 245.6L123.199 247.7L122.999 247L119.399 244.9Z" fill="#C4C3EC"/>
<path d="M122.999 247L123.199 247.7L126.699 244.6L126.599 244L122.999 247Z" fill="#B7B6E3"/>
<path d="M119.399 244.9L122.999 247L126.599 244L122.899 241.9L119.399 244.9Z" fill="#EBEBF1"/>
<path d="M123.8 247.4L124 248.1L127.6 250.2L127.4 249.5L123.8 247.4Z" fill="#C4C3EC"/>
<path d="M127.399 249.5L127.599 250.2L131.099 247.2L130.999 246.5L127.399 249.5Z" fill="#B7B6E3"/>
<path d="M123.8 247.4L127.4 249.5L131 246.5L127.3 244.4L123.8 247.4Z" fill="#EBEBF1"/>
<path d="M128.2 249.9L128.4 250.6L132 252.7L131.8 252L128.2 249.9Z" fill="#C4C3EC"/>
<path d="M131.8 252L132 252.7L135.5 249.7L135.3 249L131.8 252Z" fill="#B7B6E3"/>
<path d="M128.2 249.9L131.8 252L135.3 249L131.7 246.9L128.2 249.9Z" fill="#EBEBF1"/>
<path d="M132.6 252.4L132.8 253.1L136.4 255.2L136.2 254.5L132.6 252.4Z" fill="#C4C3EC"/>
<path d="M136.199 254.5L136.399 255.2L139.899 252.2L139.699 251.5L136.199 254.5Z" fill="#B7B6E3"/>
<path d="M132.6 252.4L136.2 254.5L139.7 251.5L136.1 249.4L132.6 252.4Z" fill="#EBEBF1"/>
<path d="M113 247.3L113.2 248L116.8 250L116.6 249.4L113 247.3Z" fill="#C4C3EC"/>
<path d="M116.6 249.4L116.8 250L120.3 247L120.2 246.3L116.6 249.4Z" fill="#B7B6E3"/>
<path d="M113 247.3L116.6 249.4L120.2 246.3L116.5 244.3L113 247.3Z" fill="#EBEBF1"/>
<path d="M117.399 249.8L117.599 250.5L121.199 252.6L120.999 251.9L117.399 249.8Z" fill="#C4C3EC"/>
<path d="M120.999 251.9L121.199 252.6L124.699 249.5L124.599 248.8L120.999 251.9Z" fill="#B7B6E3"/>
<path d="M117.399 249.8L120.999 251.9L124.599 248.8L120.899 246.8L117.399 249.8Z" fill="#EBEBF1"/>
<path d="M121.8 252.3L122 253L125.6 255.1L125.4 254.4L121.8 252.3Z" fill="#C4C3EC"/>
<path d="M125.399 254.4L125.599 255.1L129.099 252L128.899 251.3L125.399 254.4Z" fill="#B7B6E3"/>
<path d="M121.8 252.3L125.4 254.4L128.9 251.3L125.3 249.3L121.8 252.3Z" fill="#EBEBF1"/>
<path d="M126.2 254.8L126.4 255.5L130 257.6L129.8 256.9L126.2 254.8Z" fill="#C4C3EC"/>
<path d="M129.8 256.9L130 257.6L133.5 254.5L133.3 253.8L129.8 256.9Z" fill="#B7B6E3"/>
<path d="M126.2 254.8L129.8 256.9L133.3 253.8L129.7 251.8L126.2 254.8Z" fill="#EBEBF1"/>
<path d="M137 255L137.1 255.6L140.8 257.7L140.6 257L137 255Z" fill="#C4C3EC"/>
<path d="M140.6 257L140.8 257.7L144.3 254.7L144.1 254L140.6 257Z" fill="#B7B6E3"/>
<path d="M137 255L140.6 257L144.1 254L140.5 251.9L137 255Z" fill="#EBEBF1"/>
<path d="M130.6 257.3L130.7 258L134.4 260.1L134.2 259.4L130.6 257.3Z" fill="#C4C3EC"/>
<path d="M134.199 259.4L134.399 260.1L137.899 257L137.699 256.4L134.199 259.4Z" fill="#B7B6E3"/>
<path d="M130.6 257.3L134.2 259.4L137.7 256.4L134.1 254.3L130.6 257.3Z" fill="#EBEBF1"/>
<path d="M141.399 257.5L141.499 258.1L145.199 260.2L144.999 259.5L141.399 257.5Z" fill="#C4C3EC"/>
<path d="M144.999 259.5L145.199 260.2L148.699 257.2L148.499 256.5L144.999 259.5Z" fill="#B7B6E3"/>
<path d="M141.399 257.5L144.999 259.5L148.499 256.5L144.899 254.4L141.399 257.5Z" fill="#EBEBF1"/>
<path d="M135 259.8L135.1 260.5L138.8 262.6L138.6 261.9L135 259.8Z" fill="#C4C3EC"/>
<path d="M138.6 261.9L138.8 262.6L142.3 259.5L142.1 258.9L138.6 261.9Z" fill="#B7B6E3"/>
<path d="M135 259.8L138.6 261.9L142.1 258.9L138.5 256.8L135 259.8Z" fill="#EBEBF1"/>
<path d="M145.8 260L145.9 260.7L149.6 262.7L149.4 262L145.8 260Z" fill="#C4C3EC"/>
<path d="M149.399 262L149.599 262.7L153.099 259.7L152.899 259L149.399 262Z" fill="#B7B6E3"/>
<path d="M145.8 260L149.4 262L152.9 259L149.3 256.9L145.8 260Z" fill="#EBEBF1"/>
<path d="M139.399 262.3L139.499 263L143.199 265.1L142.999 264.4L139.399 262.3Z" fill="#C4C3EC"/>
<path d="M142.999 264.4L143.199 265.1L146.699 262.1L146.499 261.4L142.999 264.4Z" fill="#B7B6E3"/>
<path d="M139.399 262.3L142.999 264.4L146.499 261.4L142.899 259.3L139.399 262.3Z" fill="#EBEBF1"/>
<path d="M150.1 262.5L150.3 263.2L153.9 265.2L153.8 264.5L150.1 262.5Z" fill="#C4C3EC"/>
<path d="M153.8 264.5L153.9 265.2L157.5 262.2L157.3 261.5L153.8 264.5Z" fill="#B7B6E3"/>
<path d="M150.1 262.5L153.8 264.5L157.3 261.5L153.7 259.4L150.1 262.5Z" fill="#EBEBF1"/>
<path d="M143.7 264.8L143.9 265.5L147.5 267.6L147.4 266.9L143.7 264.8Z" fill="#C4C3EC"/>
<path d="M147.4 266.9L147.5 267.6L151.1 264.6L150.9 263.9L147.4 266.9Z" fill="#B7B6E3"/>
<path d="M143.7 264.8L147.4 266.9L150.9 263.9L147.3 261.8L143.7 264.8Z" fill="#EBEBF1"/>
<path d="M154.5 265L154.7 265.7L158.3 267.7L158.2 267.1L154.5 265Z" fill="#C4C3EC"/>
<path d="M158.2 267.1L158.3 267.7L161.9 264.7L161.7 264L158.2 267.1Z" fill="#B7B6E3"/>
<path d="M154.5 265L158.2 267.1L161.7 264L158.1 261.9L154.5 265Z" fill="#EBEBF1"/>
<path d="M148.1 267.4L148.3 268L151.9 270.1L151.8 269.4L148.1 267.4Z" fill="#C4C3EC"/>
<path d="M151.8 269.4L151.9 270.1L155.5 267.1L155.3 266.4L151.8 269.4Z" fill="#B7B6E3"/>
<path d="M148.1 267.4L151.8 269.4L155.3 266.4L151.7 264.3L148.1 267.4Z" fill="#EBEBF1"/>
<path d="M158.899 267.5L159.099 268.2L162.699 270.2L162.599 269.6L158.899 267.5Z" fill="#C4C3EC"/>
<path d="M162.6 269.6L162.7 270.2L166.2 267.2L166.1 266.5L162.6 269.6Z" fill="#B7B6E3"/>
<path d="M158.899 267.5L162.599 269.6L166.099 266.5L162.499 264.5L158.899 267.5Z" fill="#EBEBF1"/>
<path d="M152.5 269.9L152.7 270.5L156.3 272.6L156.2 271.9L152.5 269.9Z" fill="#C4C3EC"/>
<path d="M156.2 271.9L156.3 272.6L159.8 269.6L159.7 268.9L156.2 271.9Z" fill="#B7B6E3"/>
<path d="M152.5 269.9L156.2 271.9L159.7 268.9L156.1 266.8L152.5 269.9Z" fill="#EBEBF1"/>
<path d="M163.3 270L163.5 270.7L173.7 276.5L173.5 275.8L163.3 270Z" fill="#C4C3EC"/>
<path d="M173.5 275.8L173.7 276.5L177.2 273.5L177.1 272.8L173.5 275.8Z" fill="#B7B6E3"/>
<path d="M163.3 270L173.5 275.8L177.1 272.8L166.8 267L163.3 270Z" fill="#EBEBF1"/>
<path d="M156.899 272.4L157.099 273.1L160.699 275.1L160.499 274.4L156.899 272.4Z" fill="#C4C3EC"/>
<path d="M160.499 274.4L160.699 275.1L164.199 272.1L164.099 271.4L160.499 274.4Z" fill="#B7B6E3"/>
<path d="M156.899 272.4L160.499 274.4L164.099 271.4L160.399 269.3L156.899 272.4Z" fill="#EBEBF1"/>
<path d="M100 245.9L100.2 246.6L106 249.9L105.9 249.2L100 245.9Z" fill="#C4C3EC"/>
<path d="M105.9 249.2L106 249.9L109.5 246.9L109.4 246.2L105.9 249.2Z" fill="#B7B6E3"/>
<path d="M100 245.9L105.9 249.2L109.4 246.2L103.6 242.9L100 245.9Z" fill="#EBEBF1"/>
<path d="M106.6 249.7L106.8 250.3L110.4 252.4L110.2 251.7L106.6 249.7Z" fill="#C4C3EC"/>
<path d="M110.199 251.7L110.399 252.4L113.899 249.4L113.799 248.7L110.199 251.7Z" fill="#B7B6E3"/>
<path d="M106.6 249.7L110.2 251.7L113.8 248.7L110.1 246.6L106.6 249.7Z" fill="#EBEBF1"/>
<path d="M111 252.2L111.2 252.9L114.8 254.9L114.6 254.2L111 252.2Z" fill="#C4C3EC"/>
<path d="M114.6 254.2L114.8 254.9L118.3 251.9L118.2 251.2L114.6 254.2Z" fill="#B7B6E3"/>
<path d="M111 252.2L114.6 254.2L118.2 251.2L114.5 249.1L111 252.2Z" fill="#EBEBF1"/>
<path d="M115.399 254.7L115.599 255.4L119.199 257.4L118.999 256.7L115.399 254.7Z" fill="#C4C3EC"/>
<path d="M118.999 256.7L119.199 257.4L122.699 254.4L122.499 253.7L118.999 256.7Z" fill="#B7B6E3"/>
<path d="M115.399 254.7L118.999 256.7L122.499 253.7L118.899 251.6L115.399 254.7Z" fill="#EBEBF1"/>
<path d="M119.8 257.2L120 257.9L123.6 259.9L123.4 259.3L119.8 257.2Z" fill="#C4C3EC"/>
<path d="M123.399 259.3L123.599 259.9L127.099 256.9L126.899 256.2L123.399 259.3Z" fill="#B7B6E3"/>
<path d="M119.8 257.2L123.4 259.3L126.9 256.2L123.3 254.1L119.8 257.2Z" fill="#EBEBF1"/>
<path d="M124.2 259.7L124.4 260.4L128 262.4L127.8 261.8L124.2 259.7Z" fill="#C4C3EC"/>
<path d="M127.8 261.8L128 262.4L131.5 259.4L131.3 258.7L127.8 261.8Z" fill="#B7B6E3"/>
<path d="M124.2 259.7L127.8 261.8L131.3 258.7L127.7 256.7L124.2 259.7Z" fill="#EBEBF1"/>
<path d="M128.6 262.2L128.7 262.9L132.4 265L132.2 264.3L128.6 262.2Z" fill="#C4C3EC"/>
<path d="M132.199 264.3L132.399 265L135.899 261.9L135.699 261.2L132.199 264.3Z" fill="#B7B6E3"/>
<path d="M128.6 262.2L132.2 264.3L135.7 261.2L132.1 259.2L128.6 262.2Z" fill="#EBEBF1"/>
<path d="M133 264.7L133.1 265.4L136.8 267.5L136.6 266.8L133 264.7Z" fill="#C4C3EC"/>
<path d="M136.6 266.8L136.8 267.5L140.3 264.4L140.1 263.7L136.6 266.8Z" fill="#B7B6E3"/>
<path d="M133 264.7L136.6 266.8L140.1 263.7L136.5 261.7L133 264.7Z" fill="#EBEBF1"/>
<path d="M137.3 267.2L137.5 267.9L141.1 270L141 269.3L137.3 267.2Z" fill="#C4C3EC"/>
<path d="M141 269.3L141.1 270L144.7 266.9L144.5 266.2L141 269.3Z" fill="#B7B6E3"/>
<path d="M137.3 267.2L141 269.3L144.5 266.2L140.9 264.2L137.3 267.2Z" fill="#EBEBF1"/>
<path d="M141.7 269.7L141.9 270.4L145.5 272.5L145.4 271.8L141.7 269.7Z" fill="#C4C3EC"/>
<path d="M145.4 271.8L145.5 272.5L149.1 269.4L148.9 268.8L145.4 271.8Z" fill="#B7B6E3"/>
<path d="M141.7 269.7L145.4 271.8L148.9 268.8L145.3 266.7L141.7 269.7Z" fill="#EBEBF1"/>
<path d="M146.1 272.2L146.3 272.9L149.9 275L149.8 274.3L146.1 272.2Z" fill="#C4C3EC"/>
<path d="M149.8 274.3L149.9 275L153.4 271.9L153.3 271.3L149.8 274.3Z" fill="#B7B6E3"/>
<path d="M146.1 272.2L149.8 274.3L153.3 271.3L149.7 269.2L146.1 272.2Z" fill="#EBEBF1"/>
<path d="M150.5 274.7L150.7 275.4L154.3 277.5L154.1 276.8L150.5 274.7Z" fill="#C4C3EC"/>
<path d="M154.1 276.8L154.3 277.5L157.8 274.5L157.7 273.8L154.1 276.8Z" fill="#B7B6E3"/>
<path d="M150.5 274.7L154.1 276.8L157.7 273.8L154 271.7L150.5 274.7Z" fill="#EBEBF1"/>
<path d="M95.7998 249.5L95.9998 250.2L104 254.8L103.8 254.1L95.7998 249.5Z" fill="#C4C3EC"/>
<path d="M103.8 254.1L104 254.8L107.5 251.7L107.4 251.1L103.8 254.1Z" fill="#B7B6E3"/>
<path d="M95.7998 249.5L103.8 254.1L107.4 251.1L99.3998 246.5L95.7998 249.5Z" fill="#EBEBF1"/>
<path d="M104.6 254.5L104.8 255.2L108.4 257.3L108.2 256.6L104.6 254.5Z" fill="#C4C3EC"/>
<path d="M108.199 256.6L108.399 257.3L111.899 254.3L111.799 253.6L108.199 256.6Z" fill="#B7B6E3"/>
<path d="M104.6 254.5L108.2 256.6L111.8 253.6L108.1 251.5L104.6 254.5Z" fill="#EBEBF1"/>
<path d="M109 257L109.2 257.7L112.8 259.8L112.6 259.1L109 257Z" fill="#C4C3EC"/>
<path d="M112.6 259.1L112.8 259.8L116.3 256.8L116.1 256.1L112.6 259.1Z" fill="#B7B6E3"/>
<path d="M109 257L112.6 259.1L116.1 256.1L112.5 254L109 257Z" fill="#EBEBF1"/>
<path d="M113.399 259.5L113.599 260.2L143.499 277.4L143.399 276.7L113.399 259.5Z" fill="#C4C3EC"/>
<path d="M143.399 276.7L143.499 277.4L146.999 274.3L146.899 273.6L143.399 276.7Z" fill="#B7B6E3"/>
<path d="M113.399 259.5L143.399 276.7L146.899 273.6L116.899 256.5L113.399 259.5Z" fill="#EBEBF1"/>
<path d="M144.1 277.1L144.3 277.8L147.9 279.9L147.7 279.2L144.1 277.1Z" fill="#C4C3EC"/>
<path d="M147.699 279.2L147.899 279.9L151.399 276.8L151.299 276.1L147.699 279.2Z" fill="#B7B6E3"/>
<path d="M144.1 277.1L147.7 279.2L151.3 276.1L147.6 274.1L144.1 277.1Z" fill="#EBEBF1"/>
<path d="M161.3 274.9L161.5 275.6L169.5 280.1L169.3 279.5L161.3 274.9Z" fill="#C4C3EC"/>
<path d="M169.3 279.5L169.5 280.1L173 277.1L172.8 276.4L169.3 279.5Z" fill="#B7B6E3"/>
<path d="M161.3 274.9L169.3 279.5L172.8 276.4L164.8 271.8L161.3 274.9Z" fill="#EBEBF1"/>
<path d="M154.899 277.2L155.099 277.9L158.699 280L158.499 279.3L154.899 277.2Z" fill="#C4C3EC"/>
<path d="M158.499 279.3L158.699 280L162.199 277L162.099 276.3L158.499 279.3Z" fill="#B7B6E3"/>
<path d="M154.899 277.2L158.499 279.3L162.099 276.3L158.399 274.2L154.899 277.2Z" fill="#EBEBF1"/>
<path d="M148.5 279.6L148.7 280.3L152.3 282.4L152.1 281.7L148.5 279.6Z" fill="#C4C3EC"/>
<path d="M152.1 281.7L152.3 282.4L155.8 279.3L155.7 278.6L152.1 281.7Z" fill="#B7B6E3"/>
<path d="M148.5 279.6L152.1 281.7L155.7 278.6L152 276.6L148.5 279.6Z" fill="#EBEBF1"/>
<path d="M159.3 279.8L159.5 280.4L165.3 283.8L165.1 283.1L159.3 279.8Z" fill="#C4C3EC"/>
<path d="M165.1 283.1L165.3 283.8L168.8 280.7L168.6 280L165.1 283.1Z" fill="#B7B6E3"/>
<path d="M159.3 279.8L165.1 283.1L168.6 280L162.8 276.7L159.3 279.8Z" fill="#EBEBF1"/>
<path d="M152.899 282.1L153.099 282.8L161.099 287.4L160.899 286.7L152.899 282.1Z" fill="#C4C3EC"/>
<path d="M160.899 286.7L161.099 287.4L164.599 284.3L164.399 283.7L160.899 286.7Z" fill="#B7B6E3"/>
<path d="M152.899 282.1L160.899 286.7L164.399 283.7L156.399 279.1L152.899 282.1Z" fill="#EBEBF1"/>
<path d="M232.4 128.8L229.5 127.1L168.1 335L171 336.7L232.4 128.8Z" fill="#DAD9E8"/>
<path d="M236.3 128.4L233.4 126.7L229.5 127.1L232.4 128.8L236.3 128.4Z" fill="#EBEBF1"/>
<path d="M232.4 128.8L171 336.7L175 336.2L236.3 128.4L232.4 128.8Z" fill="#919DD6"/>
<path d="M256.699 170.4L258.999 169V165.6L256.699 166.9V170.4Z" fill="#919DD6"/>
<path d="M256.7 166.9L259 165.6L228.6 148.1L226.3 149.4L256.7 166.9Z" fill="#919DD6"/>
<path d="M226.299 149.4L223.899 151.4L256.699 170.4V166.9L226.299 149.4Z" fill="#DAD9E8"/>
<path d="M249.1 195.5L251.4 194.1V190.7L249.1 192V195.5Z" fill="#919DD6"/>
<path d="M249.1 192L251.4 190.7L221.1 173.1L218.8 174.5L249.1 192Z" fill="#919DD6"/>
<path d="M218.8 174.5L216.3 176.5L249.1 195.5V192L218.8 174.5Z" fill="#DAD9E8"/>
<path d="M241.8 220.6L244.1 219.3V215.8L241.8 217.2V220.6Z" fill="#919DD6"/>
<path d="M241.8 217.2L244.1 215.8L213.7 198.3L211.4 199.6L241.8 217.2Z" fill="#919DD6"/>
<path d="M211.4 199.6L209 201.7L241.8 220.6V217.2L211.4 199.6Z" fill="#DAD9E8"/>
<path d="M234.199 245.7L236.499 244.4V240.9L234.199 242.3V245.7Z" fill="#919DD6"/>
<path d="M234.199 242.3L236.499 240.9L206.199 223.4L203.899 224.7L234.199 242.3Z" fill="#919DD6"/>
<path d="M203.899 224.7L201.399 226.8L234.199 245.7V242.3L203.899 224.7Z" fill="#DAD9E8"/>
<path d="M226.899 270.9L229.199 269.5V266.1L226.899 267.4V270.9Z" fill="#919DD6"/>
<path d="M226.9 267.4L229.2 266.1L198.9 248.6L196.6 249.9L226.9 267.4Z" fill="#919DD6"/>
<path d="M196.6 249.9L194.1 251.9L226.9 270.9V267.4L196.6 249.9Z" fill="#DAD9E8"/>
<path d="M226.9 270.9L229.2 269.5V266.1L226.9 267.4V270.9Z" fill="#919DD6"/>
<path d="M226.9 267.4L229.2 266.1L198.8 248.6L196.5 249.9L226.9 267.4Z" fill="#919DD6"/>
<path d="M219.6 296.1L221.9 294.7V291.3L219.6 292.6V296.1Z" fill="#919DD6"/>
<path d="M219.6 292.6L221.9 291.3L191.5 273.7L189.2 275.1L219.6 292.6Z" fill="#919DD6"/>
<path d="M189.2 275.1L186.8 277.1L219.6 296.1V292.6L189.2 275.1Z" fill="#DAD9E8"/>
<path d="M212.1 321.2L214.4 319.9V316.4L212.2 317.8L212.1 321.2Z" fill="#919DD6"/>
<path d="M212.2 317.8L214.4 316.4L184.1 298.9L181.8 300.2L212.2 317.8Z" fill="#919DD6"/>
<path d="M181.8 300.2L179.3 302.3L212.1 321.2L212.2 317.8L181.8 300.2Z" fill="#DAD9E8"/>
<path d="M204.699 346.3L206.999 345V341.5L204.699 342.9V346.3Z" fill="#919DD6"/>
<path d="M204.7 342.9L207 341.5L176.6 324L174.3 325.3L204.7 342.9Z" fill="#919DD6"/>
<path d="M174.299 325.3L171.899 327.4L204.699 346.3V342.9L174.299 325.3Z" fill="#DAD9E8"/>
<path d="M264.8 147.7L261.9 146L200.6 353.9L203.5 355.5L264.8 147.7Z" fill="#DAD9E8"/>
<path d="M268.799 147.3L265.799 145.6L261.899 146L264.799 147.7L268.799 147.3Z" fill="#EBEBF1"/>
<path d="M264.8 147.7L203.5 355.5L207.4 355.1L268.8 147.3L264.8 147.7Z" fill="#919DD6"/>
<path d="M197.2 313.2C197.5 312.6 197.9 312.8 198.3 312.8C198.9 312.7 199.5 312.4 199.9 312C200.5 311.6 201.1 311 201.7 310.6C203.2 309.4 205 308.4 206.8 307.8C207.6 307.5 208.6 307.3 209.5 307.5C210.2 307.6 210.8 307.8 211.4 308.2C211.9 308.5 212.2 308.9 212.4 309.4C212.6 309.9 212.5 310.5 212.5 311C212.5 311.5 212.4 311.9 212.2 312.4C211.9 313.3 211.1 314 210.4 314.6C209.6 315.3 208.7 316 207.6 316.4C206.8 316.7 205.8 316.8 205.1 317.3C204.6 317.6 204.1 318 203.7 318.4C203.4 318.7 203.1 319.2 202.7 319.4C201.8 319.9 200.8 320.2 199.7 320.1C197.7 320 196.2 318.6 196.4 316.6C196.5 315.9 196.7 315.2 196.9 314.4C197 313.9 197.1 313.5 197.2 313.2Z" fill="#01084E"/>
<path d="M180.099 328.6C180.399 328 180.799 328.3 181.199 328.2C181.799 328.1 182.399 327.8 182.899 327.5C183.499 327.1 184.099 326.6 184.699 326.1C186.299 324.9 187.999 324 189.899 323.5C191.099 323.1 192.399 322.9 193.599 323.4C194.299 323.7 194.799 324.2 195.199 324.8C195.599 325.4 195.499 326.1 195.399 326.8C195.399 327.3 195.299 327.7 195.099 328.2C194.699 329.1 193.999 329.7 193.199 330.3C192.299 331 191.399 331.6 190.399 332C189.499 332.3 188.599 332.4 187.799 332.7C187.299 333 186.799 333.3 186.299 333.7C185.999 334 185.699 334.5 185.199 334.7C184.299 335.1 183.199 335.4 182.199 335.3C180.199 335.1 178.799 333.7 178.999 331.7C179.099 331 179.299 330.3 179.599 329.6C179.899 329.2 179.999 328.8 180.099 328.6Z" fill="#01084E"/>
<path d="M190.7 277.2C190.7 276.6 190.6 276.2 189.8 276C187.6 275.3 185.4 274.6 183.2 274.1C181.9 273.8 180.5 273.6 179.2 273.5L176.3 270.9C175.9 273.4 175.7 276 176 278.6C176.6 284.1 178.1 296.9 178.5 303C178.8 307.1 178.8 311.3 178.8 315.4C178.8 319.5 179.1 323.5 179.4 327.6C179.5 328.5 179.6 329.5 180.2 330.1C180.9 330.8 181.8 331.2 182.8 331.3C184.3 331.5 185.8 330.9 186.8 329.9C187.5 329.2 187.4 327.9 187.5 327.1C187.6 326.3 187.6 325.5 187.7 324.7C187.8 322.4 187.8 320.1 187.9 317.8C188 315.4 188.1 312.9 188.3 310.5C188.4 308.9 188.5 307.3 188.7 305.7C188.8 304.8 188.9 303.9 188.9 303.1C189.2 300.6 189.6 298.2 189.8 295.7C190.2 291 190.5 286.3 190.7 281.6C190.7 280.4 190.8 279.2 190.8 278.1C190.7 277.7 190.7 277.4 190.7 277.2Z" fill="#11449B"/>
<path d="M191.9 264.3C189.7 264.2 187.1 268.9 185.7 270.2C184.5 271.4 183.1 272.5 181.8 273.7C181.2 274.2 180.6 274.9 179.9 275.3C179.3 275.6 178.6 275.6 178 275.9C177.5 276.1 175.8 274.1 175.7 274.6C175.6 275.4 176.7 278.6 178 279.6C184 283.9 191.6 285.2 197.4 289.8C199.8 291.7 201.8 294.2 204 296.3C204.3 296.6 204.6 296.8 204.9 297C205.5 297.3 206.2 297.3 206.9 297.2C209.3 296.9 208.6 295.6 209.4 293.1C210 291.2 213 291.2 212.7 289.2C212.3 286.3 210 284.3 208.7 282.8C203.7 277.2 199 271.4 194 265.8C193.5 265.2 193 264.7 192.2 264.4C192.2 264.3 192 264.3 191.9 264.3Z" fill="#336FD6"/>
<path d="M203.1 243C203.2 243.7 203 245 202.4 245.5C201.8 245.9 200.6 245.7 200 245.8C198 246 196 246.1 194.1 246.2C193.2 246.3 192.3 246.3 191.4 246.3C188.8 246.4 186.2 246.2 183.6 245.8C182.6 245.6 181 245.4 180.2 244.7C179.4 244 179.3 243 179.5 241.9C179.7 240 180.7 238.2 182.5 237.5C184.3 236.8 186.1 237.1 187.9 237.3C192 237.8 196.1 238.6 200.1 239.7C200.8 239.9 201.5 240.1 202.1 240.5C202.6 241.1 203 242 203.1 243Z" fill="white"/>
<path d="M202.4 240.8C202.4 240.7 202.4 240.7 202.4 240.6C202.4 239.5 202.4 238.3 201.7 237.3C201.2 236.5 200.1 236 199.3 235.5C196.6 233.8 193.7 232.3 190.7 231.2C186.1 229.5 181.4 226.2 176.5 228.9C176 229.2 175.5 229.5 175.1 229.9C172.6 232.4 172.9 236.3 173.3 239.5C173.8 243.6 175 247.6 175.7 251.7C175.8 252.5 176 253.4 176.1 254.3C176.5 257.3 176.2 260.3 176.6 263.2C176.9 265.7 176.2 268.7 175.8 271.2C175.6 272.8 175.4 274.5 176.3 275.8C177.2 277.2 179.1 277.8 180.7 278.1C186.8 279.5 193.4 280.6 199.3 278.4C200.4 278 201.5 277.4 201.9 276.4C202.2 275.7 202.1 275 202 274.2C201.2 265.9 201 257.6 201.8 249.3C202 246.6 202.4 243.7 202.4 240.8Z" fill="#F4413C"/>
<path d="M201.599 236.7C199.899 235.6 197.699 234.8 195.899 235.8C195.199 236.2 194.699 236.8 194.199 237.5C193.799 238 193.499 238.6 193.299 239.3C192.799 240.8 192.999 242.6 193.699 244.1C194.599 245.9 195.899 246.7 197.599 247.5C198.999 248.2 200.399 248.9 201.799 249.7C204.599 251.2 207.299 252.8 210.199 253.9C211.899 254.5 213.799 255 215.299 254C216.299 253.4 216.999 252.1 217.099 250.7C217.299 247.4 215.099 246.8 214.799 246.6C204.899 239.4 201.399 236.6 201.599 236.7Z" fill="#F5554F"/>
<path d="M225.3 240.2C225.4 240 225.4 239.8 225.5 239.6C226 238.5 226.7 237.5 227.4 236.6C228.1 235.8 228.9 234.8 229.9 234.6C230.8 234.4 231.6 234.1 232.5 234.7C232.7 234.8 232.8 235 232.9 235.3C232.9 235.5 232.8 235.7 232.8 235.8C232.9 236.2 233.5 236.4 233.7 236.7C233.8 236.9 234 237.1 233.9 237.3C233.8 237.5 233.6 237.5 233.6 237.7C233.6 237.9 233.9 238 233.9 238.3C233.9 238.4 233.8 238.5 233.8 238.6C233.8 238.7 233.9 238.9 233.9 239C233.9 239.2 233.9 239.4 233.9 239.6C233.9 239.7 233.9 239.7 233.8 239.8C233.8 239.8 233.7 239.9 233.6 239.9C233.1 240 232.5 239.9 232 240C231.6 240 231.2 240.3 230.9 240.6C230.6 240.9 230.4 241.2 230.1 241.5C229.8 241.9 229.4 242.2 229 242.5C228.6 242.7 227.9 243.2 227.7 243.3L225.3 240.2Z" fill="#F5BFA6"/>
<path d="M228.3 239.9C228.7 240.4 229.3 241.6 229.1 242.4C228.9 243 228 243.6 227.6 244C226.3 245.3 225.1 246.5 223.8 247.7C223.2 248.3 222.6 248.8 222 249.4C220.2 251 218.4 252.3 216.4 253.4C215.6 253.8 214.4 254.6 213.5 254.5C212.6 254.4 212 253.6 211.5 252.6C210.7 250.9 210.3 248.9 211.1 247.2C211.9 245.6 213.3 244.8 214.7 244C217.8 242.1 221 240.4 224.3 239C224.9 238.7 225.5 238.5 226.1 238.5C226.9 238.6 227.7 239.1 228.3 239.9Z" fill="#F5554F"/>
<path d="M191.9 227.3C192.1 226.1 193 226.4 192.5 225.3C192.1 224.4 191.5 223.5 190.7 222.9C189.9 222.3 188.9 221.9 187.9 222C187.5 222 187.3 222.2 187 222.2C186 222.2 185.1 222 184.1 222.2C183.1 222.3 182.3 222.4 182.3 223.5C182.3 224.9 182.4 226.3 181.9 227.7C181.7 228.5 181.3 229.2 181.2 230C181.1 231.6 182.2 233 183.6 233.7C185.3 234.5 187.3 234.5 189.1 234.2C190 234.1 191.3 233.9 191.9 233C192.3 232.3 192.1 231.5 192 230.8C191.8 229.4 191.7 228.4 191.9 227.3Z" fill="#F5BFA6"/>
<path d="M196 211.7C196.6 212.4 197 213.2 197.2 214.1C197.5 216.2 196.7 218.3 197.1 220.3C197.5 222.3 196.7 226.8 192.8 228C190.8 228.6 186.9 227.9 185.6 227.3C183.9 226.5 182.8 224.9 181.8 223.3C173.6 210.3 190.4 204.9 196 211.7Z" fill="#F5BFA6"/>
<path d="M179.4 209.1C179.8 208.7 180.3 208.3 180.9 208.1C181.1 208 181.3 207.9 181.4 207.8C181.5 207.7 181.5 207.5 181.6 207.4C181.9 206.8 182.4 206.4 183 206.1C185.2 204.9 187.8 204.8 190.3 205.2C191.1 205.3 192 205.5 192.7 205.8C193.6 206.2 194.4 206.8 195.1 207.4C196.1 208.3 197.1 209.4 197.6 210.7C197.8 211.3 197.9 211.9 198.1 212.5C198.3 213 198.1 213.7 197.6 214C197.4 214.1 197.2 214.2 197 214.4C196.2 215 196 216.3 195.7 217.1C195.5 217.7 195 218 194.9 218.6C194.8 219.2 194.8 219.9 194.6 220.5C194.5 220.8 194.3 221.1 194 221.1C193.9 221.1 193.8 221.1 193.6 221C193.3 220.8 193.1 220.4 193 220C192.9 219.6 192.8 219.2 192.6 218.8C192.6 218.7 192.5 218.7 192.5 218.7H192.4C192 218.8 191.7 219.1 191.5 219.5C191.3 219.9 191.1 220.4 191 220.9C190.8 221.6 190.8 222.3 190.7 223C190.6 223.8 190.4 224.6 189.9 225.1C188.7 226.4 186.4 226.3 184.9 226C184.3 225.9 183.8 225.7 183.3 225.5C182.1 224.9 181.3 223.8 180.5 222.7C179.8 221.7 179.1 220.7 178.7 219.5C178.5 218.8 178.4 218.2 178.3 217.5C177.7 214.7 177.4 211.2 179.4 209.1Z" fill="#01084E"/>
<path d="M191.499 217.4C189.999 217.1 189.299 218.9 190.099 220.6C190.299 221.1 190.799 221.5 191.199 222C193.599 224.8 194.699 222.3 193.899 221.4C192.199 219.1 193.499 217.8 191.499 217.4Z" fill="#F5BFA6"/>
<path d="M191.6 220.4C191.4 220.2 189.8 218.9 191.1 218.4C191.5 218.3 191.8 218.6 191.8 219C191.8 219.2 191.7 219.4 191.7 219.6C191.7 219.7 191.7 219.8 191.8 219.9C191.9 220.2 192.4 220.5 192.3 220.9C192.1 221.1 191.7 220.5 191.6 220.4Z" fill="#E9A27F"/>
<path d="M211.999 292.7C211.999 292.8 211.899 292.9 211.899 293C210.399 297 209.299 301.1 207.899 305.2C206.999 307.9 204.999 315.3 201.999 315.3C200.499 315.3 197.599 314.7 197.299 313.3C195.999 308 200.599 292.6 201.899 288.3C202.199 287.2 202.199 287.7 202.499 286.6C202.699 285.7 202.799 284.4 203.399 283.6C204.499 282.2 206.599 283.9 207.599 284.7C209.099 285.8 211.099 286.8 212.199 288.3C213.299 289.7 212.599 291.3 211.999 292.7Z" fill="#336FD6"/>
<path d="M85.6 261.4V264.9L74 258.2V254.7L85.6 261.4Z" fill="#919DD6"/>
<path d="M86.4 262.6V266.1C86.4 265.7 86.1 265.2 85.5 264.9V261.4C86.1 261.7 86.4 262.1 86.4 262.6Z" fill="#919DD6"/>
<mask id="mask22_54_222" style="mask-type:luminance" maskUnits="userSpaceOnUse" x="85" y="261" width="2" height="6">
<path d="M86.4 262.6V266.1C86.4 265.7 86.1 265.2 85.5 264.9V261.4C86.1 261.7 86.4 262.1 86.4 262.6Z" fill="white"/>
</mask>
<g mask="url(#mask22_54_222)">
<path d="M86.4 262.6V266.1C86.4 265.7 86.1 265.2 85.5 264.9V261.4C86.1 261.7 86.4 262.1 86.4 262.6Z" fill="#919DD6"/>
</g>
<path d="M95.9992 264.7V268.2C95.9992 269.5 95.5992 270.8 94.6992 272V268.5C95.5992 267.3 95.9992 266 95.9992 264.7Z" fill="#919DD6"/>
<mask id="mask23_54_222" style="mask-type:luminance" maskUnits="userSpaceOnUse" x="94" y="264" width="2" height="8">
<path d="M95.9992 264.7V268.2C95.9992 269.5 95.5992 270.8 94.6992 272V268.5C95.5992 267.3 95.9992 266 95.9992 264.7Z" fill="white"/>
</mask>
<g mask="url(#mask23_54_222)">
<path d="M95.9992 264.7V268.2C95.9992 269.5 95.5992 270.8 94.6992 272V268.5C95.5992 267.3 95.9992 266 95.9992 264.7Z" fill="#919DD6"/>
</g>
<path d="M60.5996 268.2V264.7C60.5996 267.3 62.2996 270 65.7996 272C70.9996 275 78.5996 275.8 84.9996 274.3V277.8C78.5996 279.3 70.9996 278.5 65.7996 275.5C62.2996 273.4 60.5996 270.8 60.5996 268.2Z" fill="#919DD6"/>
<mask id="mask24_54_222" style="mask-type:luminance" maskUnits="userSpaceOnUse" x="60" y="264" width="25" height="15">
<path d="M60.5996 268.2V264.7C60.5996 267.3 62.2996 270 65.7996 272C70.9996 275 78.5996 275.8 84.9996 274.3V277.8C78.5996 279.3 70.9996 278.5 65.7996 275.5C62.2996 273.4 60.5996 270.8 60.5996 268.2Z" fill="white"/>
</mask>
<g mask="url(#mask24_54_222)">
<path d="M84.9996 274.2V277.7C83.9996 277.9 83.0996 278.1 82.0996 278.2V274.7C82.9996 274.6 83.9996 274.4 84.9996 274.2Z" fill="#919DD6"/>
<path d="M81.9996 274.7V278.2C76.2996 278.9 70.1996 278 65.7996 275.4C62.2996 273.4 60.5996 270.7 60.5996 268.1V264.6C60.5996 267.2 62.2996 269.9 65.7996 271.9C70.1996 274.5 76.3996 275.4 81.9996 274.7Z" fill="#919DD6"/>
</g>
<path d="M156.1 302.6V306.1C155 305.5 153.2 305.5 152 306.1V302.6C153.2 301.9 155 301.9 156.1 302.6Z" fill="#919DD6"/>
<mask id="mask25_54_222" style="mask-type:luminance" maskUnits="userSpaceOnUse" x="152" y="302" width="5" height="5">
<path d="M156.1 302.6V306.1C155 305.5 153.2 305.5 152 306.1V302.6C153.2 301.9 155 301.9 156.1 302.6Z" fill="white"/>
</mask>
<g mask="url(#mask25_54_222)">
<path d="M156.1 302.6V306.1C155.4 305.7 154.4 305.5 153.5 305.7V302.2C154.4 302 155.4 302.2 156.1 302.6Z" fill="#919DD6"/>
<path d="M153.5 302.1V305.6C153 305.7 152.5 305.8 152.1 306V302.5C152.5 302.3 153 302.2 153.5 302.1Z" fill="#919DD6"/>
</g>
<path d="M134.3 302.6L134.2 306.2L85 277.7V274.2L134.3 302.6Z" fill="#919DD6"/>
<path d="M152.099 302.6V306.1L144.399 310.5V307L152.099 302.6Z" fill="#919DD6"/>
<path d="M143.6 311.7V308.2C143.6 307.8 143.9 307.4 144.4 307V310.5C143.9 310.9 143.6 311.3 143.6 311.7Z" fill="#919DD6"/>
<mask id="mask26_54_222" style="mask-type:luminance" maskUnits="userSpaceOnUse" x="143" y="307" width="2" height="5">
<path d="M143.6 311.7V308.2C143.6 307.8 143.9 307.4 144.4 307V310.5C143.9 310.9 143.6 311.3 143.6 311.7Z" fill="white"/>
</mask>
<g mask="url(#mask26_54_222)">
<path d="M144.399 307V310.5C144.199 310.6 143.999 310.8 143.899 310.9V307.4C143.999 307.3 144.199 307.1 144.399 307Z" fill="#919DD6"/>
<path d="M143.9 307.4V310.9C143.7 311.1 143.6 311.4 143.6 311.6V308.1C143.6 307.9 143.7 307.7 143.9 307.4Z" fill="#919DD6"/>
</g>
<path d="M168.499 306.3V309.8C168.499 310.8 168.199 311.8 167.699 312.8V309.3C168.299 308.3 168.499 307.3 168.499 306.3Z" fill="#919DD6"/>
<mask id="mask27_54_222" style="mask-type:luminance" maskUnits="userSpaceOnUse" x="167" y="306" width="2" height="7">
<path d="M168.499 306.3V309.8C168.499 310.8 168.199 311.8 167.699 312.8V309.3C168.299 308.3 168.499 307.3 168.499 306.3Z" fill="white"/>
</mask>
<g mask="url(#mask27_54_222)">
<path d="M168.499 306.3V309.8C168.499 310.8 168.199 311.8 167.699 312.8V309.3C168.299 308.3 168.499 307.3 168.499 306.3Z" fill="#919DD6"/>
</g>
<path d="M167.7 309.3V312.8L156.1 306.1V302.6L167.7 309.3Z" fill="#919DD6"/>
<path d="M133.1 309.8V306.3C133.1 308.9 134.8 311.6 138.3 313.6C143.1 316.4 150 317.2 156 316.1V319.6C149.9 320.7 143.1 319.8 138.3 317.1C134.8 315 133.1 312.4 133.1 309.8Z" fill="#919DD6"/>
<mask id="mask28_54_222" style="mask-type:luminance" maskUnits="userSpaceOnUse" x="133" y="306" width="23" height="15">
<path d="M133.1 309.8V306.3C133.1 308.9 134.8 311.6 138.3 313.6C143.1 316.4 150 317.2 156 316.1V319.6C149.9 320.7 143.1 319.8 138.3 317.1C134.8 315 133.1 312.4 133.1 309.8Z" fill="white"/>
</mask>
<g mask="url(#mask28_54_222)">
<path d="M156.1 316.1V319.6C155.6 319.7 155.1 319.8 154.6 319.8V316.3C155.1 316.2 155.6 316.2 156.1 316.1Z" fill="#919DD6"/>
<path d="M154.599 316.3V319.8C148.899 320.5 142.799 319.6 138.399 317C134.899 315 133.199 312.3 133.199 309.7V306.2C133.199 308.8 134.899 311.5 138.399 313.5C142.799 316.1 148.899 317 154.599 316.3Z" fill="#919DD6"/>
</g>
<path d="M163.3 299C168.1 301.8 169.6 305.8 167.8 309.3L156.2 302.6C155.1 302 153.3 302 152.1 302.6L144.5 307C143.4 307.6 143.4 308.7 144.5 309.4L156.1 316.1C150 317.2 143.2 316.3 138.4 313.6C133.3 310.7 131.9 306.4 134.3 302.7L84.9997 274.2C78.5997 275.7 70.9997 274.9 65.7997 271.9C61.2997 269.3 59.6997 265.6 61.0997 262.2L72.5997 268.8C73.2997 269.2 74.3997 269.4 75.3997 269.2L82.3997 268.1C83.3997 267.9 84.1997 267.5 84.4997 266.9L86.3997 262.8C86.6997 262.2 86.3997 261.6 85.5997 261.2L73.9997 254.7C79.7997 253.9 86.1997 254.8 90.6997 257.4C95.8997 260.4 97.1997 264.8 94.6997 268.5L143.8 296.8C150.2 295.3 158 296 163.3 299Z" fill="#B7B6E3"/>
<path d="M61.0002 236.5C61.1002 236.2 61.3002 236 61.9002 235.9C62.6002 235.8 63.3002 235.8 64.1002 235.8C65.1002 235.7 66.0002 235.7 67.0002 235.6C67.0002 234.8 66.9002 234 66.8002 233.2C67.8002 233.4 68.4002 233.1 69.4002 232.8C70.6002 232.4 71.7002 232 72.9002 231.6C73.4002 231.5 73.9002 231.3 74.5002 231.4C75.8002 231.7 76.5002 233.8 76.4002 235C76.3002 235.8 75.7002 236.5 75.1002 237C74.1002 237.8 72.8002 238.4 71.6002 238.5C70.3002 238.7 69.1002 239.1 68.1002 239.9C66.8002 241 65.8002 242.1 64.0002 242.2C62.2002 242.3 60.7002 241.2 60.7002 239.4C60.7002 238.7 60.8002 238.1 60.9002 237.4C60.9002 237.1 61.0002 236.8 61.0002 236.5Z" fill="#919DD6"/>
<path d="M66.5001 238.8C66.5001 238.7 66.5001 238.5 66.5001 238.4C66.4001 236.9 67.0001 235.7 67.5001 234.4C67.7001 233.9 67.9001 233.4 68.3001 233C69.3001 232.2 70.8001 232.9 71.4001 234C71.7001 234.5 71.8001 235.1 72.1001 235.6C72.6001 236.6 73.6001 237.7 74.7001 237.8C76.3001 237.9 78.0001 237.3 79.6001 237.2C80.2001 237.2 80.9001 237.1 81.4001 237.4C82.8001 237.9 83.1001 240.1 82.7001 241.4C82.4001 242.2 81.7001 242.7 81.0001 243C79.9001 243.5 78.5001 243.8 77.2001 243.7C75.9001 243.6 74.7001 243.7 73.5001 244.3C71.5001 245.3 69.1001 246.7 67.0001 244.8C66.4001 244.3 66.2001 243.5 66.1001 242.8C66.0001 241.3 66.5001 240.1 66.5001 238.8Z" fill="#C4C3EC"/>
<path d="M62.2001 178.5C63.2001 179.5 66.9001 177.7 67.0001 177.2C71.4001 173.8 70.9001 187.5 69.6001 192.9C68.9001 195.8 69.1001 198.9 68.7001 201.9C68.2001 205.2 67.5001 208.5 66.6001 211.7C66.4001 212.4 66.2001 213.1 65.7001 213.6C64.7001 214.7 62.9001 214.6 61.5001 214.3C60.2001 214.1 58.8001 213.7 58.2001 212.6C57.8001 211.9 57.8001 211.1 57.8001 210.3C57.8001 208.2 57.8001 206 57.4001 204C57.0001 201.8 56.5001 199.6 56.1001 197.4C55.7001 195.5 55.3001 193.5 55.1001 191.6C54.7001 188.1 55.0001 184.5 55.6001 181C55.9001 179.2 55.3001 175.7 57.9001 175.3C60.1001 175 61.5001 177.9 62.2001 178.5Z" fill="#DB3029"/>
<path d="M67.0996 208.6L67.7996 205.5C67.5996 206.5 67.2996 207.6 67.0996 208.6Z" fill="#EA533E"/>
<path d="M66.0002 210.6C65.2002 209.6 63.4002 209.6 62.7002 209.9C62.2002 210.1 58.6002 208.1 57.6002 207.3C57.7002 207.4 57.5002 208.2 57.5002 208.4C57.5002 208.8 57.5002 209.1 57.4002 209.5C57.4002 210.2 57.3002 210.9 57.3002 211.7C57.2002 213.1 57.2002 214.5 57.2002 215.9C57.2002 218.7 57.4002 221.4 57.7002 224.2C58.0002 227 58.5002 229.8 59.2002 232.5C59.5002 233.5 59.7002 234.6 60.1002 235.6C60.3002 236.4 60.7002 237.4 61.4002 237.8C61.8002 238 62.3002 238.1 62.7002 238.2C63.1002 238.3 63.6002 238.3 64.0002 238.2C64.5002 238.1 65.0002 237.9 65.3002 237.6C65.7002 237.2 65.9002 236.6 66.1002 236.1C66.4002 235.2 66.4002 234.2 66.4002 233.2C66.4002 228.6 66.1002 224 66.1002 219.4C66.1002 215.8 66.3002 212.3 67.0002 208.8L66.0002 210.6Z" fill="#DB3029"/>
<path d="M69 179.5C69.4 179.3 71.6 178.2 71.6 177.6C71.6 177.2 72.7 176.9 72.9 176.9C73.4 176.9 73.9 177.2 74.3 177.5C75.3 178.2 76 179.3 76.5 180.5C77.1 182.1 77.3 183.9 77.4 185.6C77.7 190.8 77.6 195.9 77 201.1C76.7 203.7 76.3 206.3 75.9 208.8C75.7 210.1 75.4 211.4 75.1 212.6C74.8 213.8 74.6 214.2 73.5 214.8C71.3 216.2 67.4 216 65.8 213.5C64.1 210.8 64.8 206.7 64.3 203.7C63.5 199.3 60.6 196.1 59.3 192C58.3 189 58.5 186.1 59 183C59.2 181.5 59.7 178 61.2 177.2C61.6 177 64.3 176.4 66.5 178.5C67.6 179.7 67.5 180.3 69 179.5Z" fill="#F5554F"/>
<path d="M54.0998 167.4C53.9998 166.6 53.8998 165.9 53.7998 165.1C53.1998 161.4 52.0998 157.9 51.5998 154.2C51.1998 151.3 50.9998 147.8 53.2998 145.5C53.6998 145.1 54.0998 144.8 54.4998 144.6C58.8998 142.1 63.1998 145.1 67.2998 146.6C69.9998 147.6 72.5998 148.9 75.0998 150.4C75.8998 150.9 76.7998 151.3 77.3998 152.2C77.9998 153.1 78.2998 154.1 78.3998 155.1C78.4998 156.3 78.1998 157.6 77.9998 158.8C76.7998 165.9 76.2998 173.1 77.0998 180.2C77.4998 183.3 77.7998 191.6 77.7998 191.6C76.7998 192 76.0998 192.5 71.1998 192.5C60.9998 192.7 55.3998 190.1 54.7998 189.6C54.1998 189.1 54.3998 187.8 54.3998 187.1C54.2998 184.9 54.3998 182.7 54.3998 180.4C54.4998 176.2 54.5998 171.8 54.0998 167.4Z" fill="#E4E3EE"/>
<path d="M74.8996 214.6C74.6996 216.8 74.4996 219.1 74.3996 221.3C74.2996 223.1 74.1996 224.8 74.0996 226.6C73.9996 228 73.9996 229.3 73.8996 230.7C73.5996 238.2 74.3996 239.9 70.8996 240.8C70.0996 241 69.2996 241.1 68.4996 240.9C66.1996 240.3 65.7996 238.3 65.4996 235.8C65.2996 234.4 65.2996 232.7 65.1996 231.3C65.1996 230.1 65.0996 228.9 65.0996 227.7C65.0996 226.1 65.0996 224.4 64.9996 222.8C64.9996 220.7 64.9996 218.5 64.8996 216.4C64.8996 213.7 64.5996 210.9 64.5996 208.1C64.5996 207.7 64.7996 207.3 65.1996 207.1C65.5996 206.8 73.8996 209.8 74.6996 210.8C74.7996 210.8 75.0996 211.9 74.8996 214.6Z" fill="#F5554F"/>
<path d="M68.3003 143.1C68.5003 142 69.3003 142.3 68.9003 141.3C68.5003 140.5 68.0003 139.7 67.3003 139.1C66.6003 138.5 65.7003 138.2 64.7003 138.3C64.4003 138.3 64.2003 138.5 63.9003 138.5C63.0003 138.5 62.2003 138.3 61.3003 138.5C60.4003 138.6 59.7003 138.7 59.7003 139.7C59.7003 141 59.8003 142.2 59.3003 143.5C59.1003 144.2 58.7003 144.8 58.7003 145.5C58.6003 146.9 59.6003 148.2 60.9003 148.8C62.4003 149.5 64.2003 149.5 65.8003 149.2C66.6003 149.1 67.8003 148.9 68.3003 148.1C68.7003 147.5 68.5003 146.7 68.4003 146.1C68.3003 145 68.2003 144 68.3003 143.1Z" fill="#F5BFA6"/>
<path d="M66.5004 126.6L62.9004 128.7C63.2004 128.6 63.5004 128.6 63.9004 128.8L67.5004 126.7C67.1004 126.5 66.7004 126.4 66.5004 126.6Z" fill="#1393F2"/>
<mask id="mask29_54_222" style="mask-type:luminance" maskUnits="userSpaceOnUse" x="62" y="126" width="6" height="3">
<path d="M66.5004 126.6L62.9004 128.7C63.2004 128.6 63.5004 128.6 63.9004 128.8L67.5004 126.7C67.1004 126.5 66.7004 126.4 66.5004 126.6Z" fill="white"/>
</mask>
<g mask="url(#mask29_54_222)">
<path d="M63.9004 128.8L67.5004 126.7C67.1004 126.5 66.8004 126.5 66.5004 126.6L62.9004 128.7C63.2004 128.5 63.5004 128.5 63.9004 128.8Z" fill="#78819C"/>
</g>
<path d="M71.9998 129.1C72.4998 129.7 72.8998 130.4 73.0998 131.3C73.3998 133.2 72.5998 135.1 72.9998 136.9C73.3998 138.7 72.5998 142.8 69.0998 143.8C67.2998 144.3 63.7998 143.7 62.6998 143.2C61.1998 142.5 60.1998 141 59.2998 139.6C51.8998 127.8 66.9998 123 71.9998 129.1Z" fill="#F5BFA6"/>
<path d="M55.9001 134.2C55.9001 134.5 56.0001 134.9 56.1001 135.2C56.2001 135.5 56.2001 135.7 56.3001 136C56.4001 136.2 56.5001 136.4 56.5001 136.6C56.9001 137.4 57.3001 138.1 57.8001 138.8C58.5001 139.8 59.2001 140.8 60.3001 141.3C60.8001 141.5 61.3001 141.6 61.8001 141.8C63.2001 142.1 65.3001 142.2 66.3001 141C66.8001 140.5 67.0001 139.8 67.1001 139.1C67.2001 138.4 67.2001 137.9 67.4001 137.2C67.4001 137 67.5001 136.9 67.5001 136.7C67.6001 136.4 67.7001 136.2 67.8001 135.9C68.0001 135.5 68.4001 135.2 68.8001 135C69.5001 134.8 70.4001 135.2 71.0001 134.8C71.3001 134.6 71.5001 134.2 71.6001 133.8C71.7001 133.4 71.9001 133 72.0001 132.6C72.2001 132.1 72.4001 131.6 72.7001 131.2C72.9001 131 73.1001 130.8 73.2001 130.5C73.4001 130.2 73.6001 129.9 73.6001 129.5C73.7001 127.8 72.3001 126.1 71.1001 125C70.5001 124.4 69.8001 123.9 69.0001 123.5C68.3001 123.2 67.5001 123.1 66.8001 122.9C64.6001 122.6 62.2001 122.6 60.2001 123.7C59.7001 124 59.2001 124.4 58.9001 124.9C58.8001 125 58.8001 125.1 58.7001 125.3C58.6001 125.4 58.4001 125.5 58.3001 125.6C57.8001 125.8 57.3001 126.2 57.0001 126.5C55.3001 128.6 55.5001 131.8 55.9001 134.2Z" fill="#02196A"/>
<path d="M67.9997 134.3C66.5997 134.2 66.1997 135.9 67.0997 137.3C67.3997 137.7 67.8997 138.1 68.1997 138.4C70.6997 140.6 71.3997 138.3 70.5997 137.5C68.7997 135.8 69.7997 134.5 67.9997 134.3Z" fill="#F5BFA6"/>
<path d="M68.3997 137C68.1997 136.8 66.5997 135.9 67.7997 135.2C68.0997 135 68.3997 135.3 68.4997 135.6C68.4997 135.8 68.4997 135.9 68.4997 136.1C68.4997 136.2 68.5997 136.3 68.5997 136.4C68.6997 136.6 69.1997 136.9 69.0997 137.2C68.9997 137.6 68.4997 137.1 68.3997 137Z" fill="#E9A27F"/>
<path d="M134.7 97.1L131.7 95.3L140.8 81.8L143.9 83.6L134.7 97.1Z" fill="#B7B6E3"/>
<path d="M132 98.5L129 96.7C129.7 97.1 130.9 96.6 131.7 95.3L134.7 97.1C133.9 98.3 132.7 98.9 132 98.5Z" fill="#B7B6E3"/>
<mask id="mask30_54_222" style="mask-type:luminance" maskUnits="userSpaceOnUse" x="129" y="95" width="6" height="4">
<path d="M132 98.5L129 96.7C129.7 97.1 130.9 96.6 131.7 95.3L134.7 97.1C133.9 98.3 132.7 98.9 132 98.5Z" fill="white"/>
</mask>
<g mask="url(#mask30_54_222)">
<path d="M132 98.5L129 96.7C129.3 96.9 129.7 96.9 130.2 96.7L133.2 98.5C132.7 98.7 132.3 98.7 132 98.5Z" fill="#B7B6E3"/>
<path d="M133.1 98.5L130.1 96.7C130.4 96.6 130.6 96.4 130.9 96.2L133.9 98C133.7 98.2 133.4 98.4 133.1 98.5Z" fill="#B7B6E3"/>
<path d="M133.9 98L130.9 96.2C131.2 96 131.5 95.7 131.7 95.3L134.7 97.1C134.5 97.5 134.2 97.8 133.9 98Z" fill="#B7B6E3"/>
</g>
<path d="M74.2998 171L71.2998 169.3L116.3 102.6L119.3 104.3L74.2998 171Z" fill="#B7B6E3"/>
<path d="M73.8998 179.7L70.8998 177.9C70.7998 177.8 70.6998 177.7 70.4998 177.6C68.7998 176.1 69.0998 172.4 71.2998 169.2L74.2998 171C72.1998 174.1 71.7998 177.9 73.4998 179.4C73.6998 179.5 73.7998 179.6 73.8998 179.7Z" fill="#B7B6E3"/>
<mask id="mask31_54_222" style="mask-type:luminance" maskUnits="userSpaceOnUse" x="69" y="169" width="6" height="11">
<path d="M73.8998 179.7L70.8998 177.9C70.7998 177.8 70.6998 177.7 70.4998 177.6C68.7998 176.1 69.0998 172.4 71.2998 169.2L74.2998 171C72.1998 174.1 71.7998 177.9 73.4998 179.4C73.6998 179.5 73.7998 179.6 73.8998 179.7Z" fill="white"/>
</mask>
<g mask="url(#mask31_54_222)">
<path d="M73.899 179.7L70.899 177.9C70.799 177.8 70.699 177.7 70.499 177.6C69.899 177.1 69.599 176.3 69.499 175.4L72.499 177.2C72.599 178.1 72.999 178.9 73.499 179.4C73.699 179.5 73.799 179.6 73.899 179.7Z" fill="#B7B6E3"/>
<path d="M72.4994 177.2L69.4994 175.4C69.3994 174.7 69.4994 174 69.5994 173.2L72.5994 175C72.4994 175.8 72.4994 176.5 72.4994 177.2Z" fill="#B7B6E3"/>
<path d="M72.6992 175L69.6992 173.2C69.9992 171.9 70.4992 170.5 71.3992 169.3L74.3992 171.1C73.4992 172.3 72.8992 173.7 72.6992 175Z" fill="#B7B6E3"/>
</g>
<path d="M123.5 86.4L120.5 84.6C124.3 79 129.3 75.6 133.4 75.3L136.4 77.1C132.3 77.5 127.3 80.8 123.5 86.4Z" fill="#B7B6E3"/>
<mask id="mask32_54_222" style="mask-type:luminance" maskUnits="userSpaceOnUse" x="120" y="75" width="17" height="12">
<path d="M123.5 86.4L120.5 84.6C124.3 79 129.3 75.6 133.4 75.3L136.4 77.1C132.3 77.5 127.3 80.8 123.5 86.4Z" fill="white"/>
</mask>
<g mask="url(#mask32_54_222)">
<path d="M123.5 86.4L120.5 84.6C122 82.4 123.7 80.5 125.5 79L128.5 80.8C126.7 82.3 125 84.2 123.5 86.4Z" fill="#B7B6E3"/>
<path d="M128.5 80.8L125.5 79C127.1 77.7 128.7 76.7 130.3 76.1L133.3 77.9C131.7 78.5 130.1 79.5 128.5 80.8Z" fill="#B7B6E3"/>
<path d="M133.3 77.9L130.3 76.1C131.4 75.7 132.5 75.4 133.5 75.3L136.5 77.1C135.4 77.2 134.3 77.5 133.3 77.9Z" fill="#B7B6E3"/>
</g>
<path d="M119.3 104.3L116.3 102.5C114.8 97.8 116.3 90.8 120.5 84.6L123.5 86.4C119.4 92.6 117.9 99.7 119.3 104.3Z" fill="#B7B6E3"/>
<mask id="mask33_54_222" style="mask-type:luminance" maskUnits="userSpaceOnUse" x="115" y="84" width="9" height="21">
<path d="M119.3 104.3L116.3 102.5C114.8 97.8 116.3 90.8 120.5 84.6L123.5 86.4C119.4 92.6 117.9 99.7 119.3 104.3Z" fill="white"/>
</mask>
<g mask="url(#mask33_54_222)">
<path d="M119.3 104.3L116.3 102.5C116.1 101.8 115.9 101.1 115.8 100.3L118.8 102.1C119 102.9 119.1 103.7 119.3 104.3Z" fill="#B7B6E3"/>
<path d="M118.9 102.2L115.9 100.4C115.7 98.7 115.8 96.8 116.2 94.8L119.2 96.6C118.8 98.5 118.7 100.4 118.9 102.2Z" fill="#B7B6E3"/>
<path d="M119.2 96.5L116.2 94.7C116.9 91.4 118.3 87.9 120.5 84.6L123.5 86.4C121.3 89.7 119.8 93.2 119.2 96.5Z" fill="#B7B6E3"/>
</g>
<path d="M123.5 86.4C127.3 80.8 132.3 77.4 136.4 77.1L127.3 90.6C126.4 91.9 126.3 93.5 127 94.1L131.8 98.3C132.5 98.9 133.8 98.3 134.7 97L143.8 83.5C144.7 88.1 143.1 94.5 139.3 100.1C135.3 106 129.9 109.5 125.6 109.4L80.3998 176.4C78.2998 179.5 75.1998 180.9 73.4998 179.4C71.7998 177.9 72.0998 174.2 74.2998 171L119.3 104.3C117.9 99.7 119.4 92.6 123.5 86.4Z" fill="#919DD6"/>
<path d="M101.4 145C101.1 145.1 100.7 145.2 100.7 144.8C100.7 144.2 101 143.6 100.9 143C100.9 142.8 100.7 142.5 100.5 142.5C100.2 142.5 100.1 142.8 100 143C99.8002 143.6 99.6002 144.2 99.2002 144.7C98.9002 145.1 98.6002 145.4 98.3002 145.8C98.0002 146.2 97.7002 146.5 97.5002 147C97.3002 147.4 97.4002 147.8 97.5002 148.2C97.6002 148.6 97.4002 148.9 97.4002 149.3C97.4002 149.8 97.4002 150.4 97.6002 150.9C97.7002 151.3 97.8002 151.8 98.1002 152C98.5002 152.2 98.9002 151.9 99.2002 151.7C99.6002 151.3 99.8002 150.8 100.1 150.3C100.3 150.1 100.3 149.9 100.5 149.6C100.7 149.4 101 149.2 101.2 149.1C101.8 148.8 102.3 148.3 102.8 147.8C103.3 147.2 103.6 146.7 103.7 146C103.8 145.5 103.8 145 103.8 144.6C103.8 144.1 103.8 143.5 103.5 143.1C103.1 142.5 103 143.2 102.8 143.5C102.5 144 102.1 144.6 101.6 145C101.5 144.9 101.5 145 101.4 145Z" fill="#F5BFA6"/>
<path d="M98.9996 149.3C98.5996 149 98.1996 148.8 97.7996 148.7C96.7996 148.6 95.9996 149 95.2996 149.6C93.0996 151.5 91.3996 154.5 88.4996 155.4C87.2996 155.8 85.8996 155.2 84.7996 154.6C83.2996 153.8 81.7996 153.2 80.2996 152.4C79.2996 151.9 78.2996 151.3 77.2996 151C75.8996 150.5 74.3995 150.2 73.0995 150.9C71.8995 151.6 71.0996 152.8 70.7996 154.3C70.4996 155.8 70.8996 157.4 71.9996 158.5C72.9996 159.5 74.3995 160 75.6995 160.4C77.1995 160.9 78.5995 161.4 80.0995 161.9C80.8995 162.2 81.5996 162.4 82.3996 162.6C83.0996 162.8 83.7996 162.9 84.4996 163C86.0996 163.4 87.9995 163.1 89.5996 162.6C90.6996 162.3 91.5996 161.7 92.3996 161C95.1996 158.7 97.4996 156.1 99.2996 153C99.5996 152.4 100.1 151.7 100.1 151.1C99.9995 150.6 99.5996 149.8 98.9996 149.3Z" fill="#EBEBF1"/>
<path d="M149.605 47.7042L138.596 11.7511L136.492 12.3952L147.501 48.3483L149.605 47.7042Z" fill="#171C29"/>
<path d="M161.7 160.8C151.6 154.6 149.3 146.2 148.4 142.6C149.2 146 151.9 149.4 156.4 152.2C167.8 159.1 186.8 159.3 198.7 152.6C203.8 149.7 206.8 146.1 207.7 142.3C206.9 145.3 205.8 149.8 201.3 154.9C199.6 156.9 195.9 160.5 189.9 162.9C180.8 166.6 169.8 165.8 161.7 160.8Z" fill="#919DD6"/>
<path d="M198.901 79C210.101 85.7 209.701 96.4 198.001 102.9C186.401 109.4 167.901 109.2 156.801 102.5C145.601 95.8 146.001 85.1 157.701 78.6C169.301 72.1 187.801 72.3 198.901 79Z" fill="#E4E3EE"/>
<path d="M148.4 142.5L139.4 103.2C140.4 107.8 143.9 112.2 149.9 115.8C164.8 124.7 189.4 125 204.9 116.4C211.6 112.7 215.4 107.9 216.5 103L207.7 142.4C206.9 146.2 203.9 149.8 198.7 152.7C186.8 159.3 167.8 159.2 156.4 152.3C151.9 149.4 149.2 146 148.4 142.5Z" fill="#B7B6E3"/>
<path d="M152.9 78C168.1 69.8 189.6 70 204 78.6C202.7 77.8 200.9 77.9 198.9 79C187.7 72.3 169.3 72.1 157.7 78.6C146.1 85.1 145.7 95.8 156.8 102.5C168 109.2 186.4 109.4 198 102.9C209.6 96.4 210 85.7 198.9 79C200.9 77.9 202.7 77.8 204 78.6C207 80.6 211.6 83.5 214.8 89.7C217.8 95.5 216.9 100.7 216.5 102.9C215.4 107.9 211.5 112.7 204.8 116.4C189.3 125 164.7 124.8 149.8 115.8C143.9 112.2 140.4 107.8 139.3 103.2C138.9 101.2 138.6 99.3 138.9 96.4C139.3 92.7 140.8 89.9 140.9 89.8C142.1 87.7 145 82.2 152.9 78Z" fill="#DAD9E8"/>
<path d="M194.1 30.5C202.7 35.6 202.4 43.9 193.4 48.8C184.5 53.8 170.3 53.6 161.8 48.5C153.2 43.4 153.5 35.1 162.5 30.2C171.4 25.2 185.5 25.3 194.1 30.5Z" fill="#EBEBF1"/>
<path d="M150.5 91.9C136.7 83.4 133.7 72.1 133.6 64.1C133.6 70.5 137.7 76.9 146 81.8C163 92 191.1 92.3 208.8 82.4C217.9 77.3 222.5 70.5 222.5 63.8C222.3 68 222.1 70.1 220.4 74.8C219.1 78.5 216.7 81.6 215.5 83.2C214.9 84 209.4 90.9 198.9 95C180.6 102.3 161.4 98.6 150.5 91.9Z" fill="#B7B6E3"/>
<path d="M151.8 28.9C159.9 24.5 168.9 22.3 178.7 22.5C188.8 22.6 197.8 25 205.5 29.6C202.6 27.9 198.6 28 194.1 30.5C185.5 25.4 171.4 25.2 162.5 30.2C153.6 35.2 153.3 43.4 161.8 48.5C170.4 53.6 184.5 53.8 193.4 48.8C202.3 43.8 202.6 35.6 194.1 30.5C198.6 28 202.6 27.8 205.5 29.6C209.6 32.2 222 40.3 222.4 57.4C222.4 64.2 217.8 71 208.7 76C191 85.9 162.9 85.6 145.9 75.4C137.7 70.4 133.6 64 133.5 57.7C133.6 55.2 133.7 52.4 134.8 49C136.1 44.9 137.2 43.2 139 40.3C140.5 37.8 145 32.5 151.8 28.9Z" fill="#E4E3EE"/>
<path d="M186.7 82.7C172.3 84.4 156.8 81.9 145.9 75.4C137.7 70.5 133.6 64.1 133.5 57.8C133.5 53.7 135.2 49.9 138 46.8C138.1 52.5 141.7 58.2 149.1 62.6C158.9 68.5 172.8 70.7 185.7 69.2C186.4 73.8 186.7 78.6 186.7 82.7Z" fill="#042F8F"/>
<path d="M133.6 64.1V57.6C133.6 64 137.7 70.4 146 75.3C163 85.5 191.1 85.8 208.8 75.9C217.9 70.8 222.5 64 222.5 57.3V63.8C222.5 70.6 217.9 77.4 208.8 82.4C191.1 92.3 163 92 146 81.8C137.7 76.9 133.6 70.5 133.6 64.1Z" fill="#DAD9E8"/>
<path d="M140.8 64.3C139.9 66.8 138.4 66.9 137.4 64.7C135.7 60.9 137.4 56.4 139.7 57C140.1 57.1 140.3 57.4 140.5 57.6C141.9 59.7 141.2 63.2 140.8 64.3Z" fill="#05D4F5"/>
<path d="M166 75.5C165.3 79.2 160.7 79.8 158.3 76.5C155.8 73.1 158.5 69.1 162 69.5C162.1 69.5 162.3 69.6 162.4 69.6C165.4 70.5 166.3 73.6 166 75.5Z" fill="#05D4F5"/>
<path d="M207.4 59.6C207.4 57.4 205.9 56.5 204 57.6C202.1 58.7 200.6 61.4 200.6 63.6C200.6 65.8 202.1 66.7 204 65.6C205.9 64.4 207.4 61.8 207.4 59.6Z" fill="#1393F2"/>
<path d="M204.499 62.7C204.199 62.7 203.799 62.6 203.599 62.3C203.199 61.8 203.299 61.1 203.799 60.8L228.899 42C229.399 41.6 230.099 41.7 230.399 42.2C230.799 42.7 230.699 43.4 230.199 43.7L205.099 62.5C204.899 62.6 204.699 62.7 204.499 62.7Z" fill="#171C29"/>
<path d="M230.1 47.2C233.303 47.2 235.9 44.6033 235.9 41.4C235.9 38.1968 233.303 35.6 230.1 35.6C226.897 35.6 224.3 38.1968 224.3 41.4C224.3 44.6033 226.897 47.2 230.1 47.2Z" fill="#1393F2"/>
<path d="M137.1 17.9C140.303 17.9 142.9 15.3033 142.9 12.1C142.9 8.89675 140.303 6.3 137.1 6.3C133.897 6.3 131.3 8.89675 131.3 12.1C131.3 15.3033 133.897 17.9 137.1 17.9Z" fill="#1393F2"/>
<path d="M212.6 101.1L216.8 103.6C215 102.6 212.5 102.7 209.7 104.3L205.5 101.8C208.3 100.2 210.8 100.1 212.6 101.1Z" fill="#EBEBF1"/>
<mask id="mask34_54_222" style="mask-type:luminance" maskUnits="userSpaceOnUse" x="205" y="100" width="12" height="5">
<path d="M212.6 101.1L216.8 103.6C215 102.6 212.5 102.7 209.7 104.3L205.5 101.8C208.3 100.2 210.8 100.1 212.6 101.1Z" fill="white"/>
</mask>
<g mask="url(#mask34_54_222)">
<path d="M209.8 104.3L205.6 101.8C208.4 100.2 210.8 100.1 212.7 101.1L216.9 103.6C215 102.5 212.5 102.7 209.8 104.3Z" fill="#EBEBF1"/>
</g>
<path d="M210.8 108.4C214.5 106.2 217.6 108 217.6 112.3C217.6 116.6 214.6 121.9 210.8 124C207 126.2 204 124.4 204 120.1C204 115.8 207 110.6 210.8 108.4Z" fill="#05D4F5"/>
<path d="M202.8 127.7L198.6 125.2C196.8 124.2 195.7 122 195.7 118.8C195.7 112.5 200.1 104.8 205.6 101.7L209.8 104.2C204.3 107.4 199.9 115 199.9 121.3C199.9 124.5 201 126.7 202.8 127.7Z" fill="#EBEBF1"/>
<mask id="mask35_54_222" style="mask-type:luminance" maskUnits="userSpaceOnUse" x="195" y="101" width="15" height="27">
<path d="M202.8 127.7L198.6 125.2C196.8 124.2 195.7 122 195.7 118.8C195.7 112.5 200.1 104.8 205.6 101.7L209.8 104.2C204.3 107.4 199.9 115 199.9 121.3C199.9 124.5 201 126.7 202.8 127.7Z" fill="white"/>
</mask>
<g mask="url(#mask35_54_222)">
<path d="M202.8 127.7L198.6 125.2C197 124.3 196 122.4 195.8 119.9L200 122.4C200.2 125 201.2 126.8 202.8 127.7Z" fill="#EBEBF1"/>
<path d="M200 122.4L195.8 119.9C195.8 119.6 195.8 119.2 195.8 118.9C195.8 113.5 199.1 107 203.5 103.3L207.7 105.8C203.3 109.5 200 115.9 200 121.4C199.9 121.7 199.9 122.1 200 122.4Z" fill="#EBEBF1"/>
<path d="M207.599 105.8L203.399 103.3C204.099 102.7 204.799 102.2 205.599 101.8L209.799 104.3C208.999 104.7 208.299 105.2 207.599 105.8Z" fill="#EBEBF1"/>
</g>
<path d="M210.8 108.4L209.8 104.3C215.3 101.1 219.7 103.7 219.7 110C219.7 116.3 215.3 123.9 209.8 127.1C204.3 130.3 199.9 127.7 199.9 121.4C199.9 115.1 204.3 107.4 209.8 104.3L210.8 108.4C207.1 110.6 204 115.8 204 120.1C204 124.4 207.1 126.2 210.8 124C214.6 121.8 217.6 116.6 217.6 112.3C217.6 108 214.5 106.2 210.8 108.4Z" fill="#EBEBF1"/>
<mask id="mask36_54_222" style="mask-type:luminance" maskUnits="userSpaceOnUse" x="199" y="102" width="21" height="27">
<path d="M210.8 108.4L209.8 104.3C215.3 101.1 219.7 103.7 219.7 110C219.7 116.3 215.3 123.9 209.8 127.1C204.3 130.3 199.9 127.7 199.9 121.4C199.9 115.1 204.3 107.4 209.8 104.3L210.8 108.4C207.1 110.6 204 115.8 204 120.1C204 124.4 207.1 126.2 210.8 124C214.6 121.8 217.6 116.6 217.6 112.3C217.6 108 214.5 106.2 210.8 108.4Z" fill="white"/>
</mask>
<g mask="url(#mask36_54_222)">
<path d="M210.8 108.4L209.8 104.3C215.3 101.1 219.7 103.7 219.7 110C219.7 116.3 215.3 123.9 209.8 127.1C204.3 130.3 199.9 127.7 199.9 121.4C199.9 115.1 204.3 107.4 209.8 104.3L210.8 108.4C207.1 110.6 204 115.8 204 120.1C204 124.4 207.1 126.2 210.8 124C214.6 121.8 217.6 116.6 217.6 112.3C217.6 108 214.5 106.2 210.8 108.4Z" fill="#C4C3EC"/>
</g>
<path d="M297.599 307.5V312.9L262.899 333V327.6L297.599 307.5Z" fill="#919DD6"/>
<path d="M262.9 327.6V333L228 312.9V307.5L262.9 327.6Z" fill="#B7B6E3"/>
<path d="M297.4 307.5L262.7 327.6L227.8 307.5L262.5 287.3L297.4 307.5Z" fill="#D8D5EE"/>
<path d="M298.199 300.3V305.7L263.499 325.9V320.5L298.199 300.3Z" fill="#B7B6E3"/>
<path d="M263.5 320.5V325.9L228.6 305.7V300.3L263.5 320.5Z" fill="#B7B6E3"/>
<path d="M297.999 300.3L263.299 320.5L228.399 300.3L263.099 280.2L297.999 300.3Z" fill="#D8D5EE"/>
<path d="M304.7 296.2V301.6L270 321.7V316.3L304.7 296.2Z" fill="#919DD6"/>
<path d="M270 316.3V321.7L235.1 301.6V296.2L270 316.3Z" fill="#B7B6E3"/>
<path d="M304.7 296.2L270 316.3L235.1 296.2L269.8 276L304.7 296.2Z" fill="#D8D5EE"/>
<path d="M304.7 289.3V294.7L270 314.8V309.4L304.7 289.3Z" fill="#919DD6"/>
<path d="M270 309.4V314.8L235.1 294.7V289.3L270 309.4Z" fill="#B7B6E3"/>
<path d="M304.7 289.3L270 309.4L235.1 289.3L269.8 269.1L304.7 289.3Z" fill="#D8D5EE"/>
<path d="M304.7 281.5V286.9L270 307.1V301.7L304.7 281.5Z" fill="#919DD6"/>
<path d="M270 301.7V307.1L235.1 286.9V281.5L270 301.7Z" fill="#B7B6E3"/>
<path d="M304.7 281.5L270 301.7L235.1 281.5L269.8 261.4L304.7 281.5Z" fill="#E4E3EE"/>
</g>
<defs>
<linearGradient id="paint0_linear_54_222" x1="203.608" y1="52.1838" x2="169.533" y2="167.517" gradientUnits="userSpaceOnUse">
<stop stop-color="#4BAAE3"/>
<stop offset="0.1911" stop-color="#46A1E2"/>
<stop offset="0.4999" stop-color="#3789E1"/>
<stop offset="0.8858" stop-color="#2063DE"/>
<stop offset="1" stop-color="#1856DD"/>
</linearGradient>
<clipPath id="clip0_54_222">
<rect width="347.6" height="355.5" fill="white"/>
</clipPath>
</defs>
</svg>
